<?xml version="1.0" encoding="UTF-8" standalone="no"?>
<!DOCTYPE svg PUBLIC "-//W3C//DTD SVG 1.1//EN"
 "http://www.w3.org/Graphics/SVG/1.1/DTD/svg11.dtd">
<!-- Generated by graphviz version 2.43.0 (0)
 -->
<!-- Title: packages Pages: 1 -->
<svg width="1043pt" height="374pt"
 viewBox="0.00 0.00 1042.50 374.00" xmlns="http://www.w3.org/2000/svg" xmlns:xlink="http://www.w3.org/1999/xlink">
<g id="graph0" class="graph" transform="scale(1 1) rotate(0) translate(4 370)">
<title>packages</title>
<!-- citegraph.api -->
<g id="node1" class="node">
<title>citegraph.api</title>
<path fill="#1f4e79" stroke="#dddddd" d="M403,-366C403,-366 369,-366 369,-366 364,-366 359,-361 359,-356 359,-356 359,-346 359,-346 359,-341 364,-336 369,-336 369,-336 403,-336 403,-336 408,-336 413,-341 413,-346 413,-346 413,-356 413,-356 413,-361 408,-366 403,-366"/>
<text text-anchor="middle" x="386" y="-347.6" font-family="Helvetica,sans-Serif" font-size="13.00" fill="white">api</text>
</g>
<!-- citegraph.config -->
<g id="node3" class="node">
<title>citegraph.config</title>
<path fill="#bdd7ee" stroke="#dddddd" d="M669.5,-30C669.5,-30 632.5,-30 632.5,-30 627.5,-30 622.5,-25 622.5,-20 622.5,-20 622.5,-10 622.5,-10 622.5,-5 627.5,0 632.5,0 632.5,0 669.5,0 669.5,0 674.5,0 679.5,-5 679.5,-10 679.5,-10 679.5,-20 679.5,-20 679.5,-25 674.5,-30 669.5,-30"/>
<text text-anchor="middle" x="651" y="-11.6" font-family="Helvetica,sans-Serif" font-size="13.00" fill="#10243a">config</text>
</g>
<!-- citegraph.api&#45;&gt;citegraph.config -->
<g id="edge1" class="edge">
<title>citegraph.api&#45;&gt;citegraph.config</title>
<path fill="none" stroke="#7f7f7f" stroke-width="1.35" d="M413.04,-338.92C460.08,-319.65 552,-282 552,-282 552,-282 819,-114 819,-114 819,-114 819,-84 819,-84 819,-84 735.91,-50.37 686.6,-30.41"/>
<polygon fill="#7f7f7f" stroke="#7f7f7f" stroke-width="1.35" points="687.29,-28.05 679.88,-27.69 685.45,-32.59 687.29,-28.05"/>
</g>
<!-- citegraph.graph -->
<g id="node4" class="node">
<title>citegraph.graph</title>
<path fill="#5b9bd5" stroke="#dddddd" d="M613.5,-198C613.5,-198 578.5,-198 578.5,-198 573.5,-198 568.5,-193 568.5,-188 568.5,-188 568.5,-178 568.5,-178 568.5,-173 573.5,-168 578.5,-168 578.5,-168 613.5,-168 613.5,-168 618.5,-168 623.5,-173 623.5,-178 623.5,-178 623.5,-188 623.5,-188 623.5,-193 618.5,-198 613.5,-198"/>
<text text-anchor="middle" x="596" y="-179.6" font-family="Helvetica,sans-Serif" font-size="13.00" fill="#10243a">graph</text>
</g>
<!-- citegraph.api&#45;&gt;citegraph.graph -->
<g id="edge2" class="edge">
<title>citegraph.api&#45;&gt;citegraph.graph</title>
<path fill="none" stroke="#7f7f7f" d="M403.9,-335.85C441.8,-305.89 530.09,-236.1 572.47,-202.6"/>
<polygon fill="#7f7f7f" stroke="#7f7f7f" points="574.17,-204.38 578.14,-198.12 571.13,-200.54 574.17,-204.38"/>
</g>
<!-- citegraph.logging_config -->
<g id="node7" class="node">
<title>citegraph.logging_config</title>
<path fill="#bdd7ee" stroke="#dddddd" d="M1024.5,-198C1024.5,-198 931.5,-198 931.5,-198 926.5,-198 921.5,-193 921.5,-188 921.5,-188 921.5,-178 921.5,-178 921.5,-173 926.5,-168 931.5,-168 931.5,-168 1024.5,-168 1024.5,-168 1029.5,-168 1034.5,-173 1034.5,-178 1034.5,-178 1034.5,-188 1034.5,-188 1034.5,-193 1029.5,-198 1024.5,-198"/>
<text text-anchor="middle" x="978" y="-179.6" font-family="Helvetica,sans-Serif" font-size="13.00" fill="#10243a">logging_config</text>
</g>
<!-- citegraph.api&#45;&gt;citegraph.logging_config -->
<g id="edge3" class="edge">
<title>citegraph.api&#45;&gt;citegraph.logging_config</title>
<path fill="none" stroke="#7f7f7f" d="M413.02,-346.44C519.19,-332.45 902,-282 902,-282 902,-282 940.43,-232.44 962.64,-203.81"/>
<polygon fill="#7f7f7f" stroke="#7f7f7f" points="964.76,-205.07 967.11,-198.04 960.89,-202.07 964.76,-205.07"/>
</g>
<!-- citegraph.models -->
<g id="node9" class="node">
<title>citegraph.models</title>
<path fill="#bdd7ee" stroke="#dddddd" d="M222.5,-30C222.5,-30 177.5,-30 177.5,-30 172.5,-30 167.5,-25 167.5,-20 167.5,-20 167.5,-10 167.5,-10 167.5,-5 172.5,0 177.5,0 177.5,0 222.5,0 222.5,0 227.5,0 232.5,-5 232.5,-10 232.5,-10 232.5,-20 232.5,-20 232.5,-25 227.5,-30 222.5,-30"/>
<text text-anchor="middle" x="200" y="-11.6" font-family="Helvetica,sans-Serif" font-size="13.00" fill="#10243a">models</text>
</g>
<!-- citegraph.api&#45;&gt;citegraph.models -->
<g id="edge4" class="edge">
<title>citegraph.api&#45;&gt;citegraph.models</title>
<path fill="none" stroke="#7f7f7f" stroke-width="1.35" d="M358.61,-340.54C304.48,-321.86 189,-282 189,-282 189,-282 71,-198 71,-198 71,-198 6,-114 6,-114 6,-114 6,-84 6,-84 6,-84 103.64,-49.78 160.38,-29.89"/>
<polygon fill="#7f7f7f" stroke="#7f7f7f" stroke-width="1.35" points="161.3,-32.16 167.09,-27.54 159.67,-27.54 161.3,-32.16"/>
</g>
<!-- citegraph.pipeline -->
<g id="node11" class="node">
<title>citegraph.pipeline</title>
<path fill="#2e75b6" stroke="#dddddd" d="M410.5,-282C410.5,-282 361.5,-282 361.5,-282 356.5,-282 351.5,-277 351.5,-272 351.5,-272 351.5,-262 351.5,-262 351.5,-257 356.5,-252 361.5,-252 361.5,-252 410.5,-252 410.5,-252 415.5,-252 420.5,-257 420.5,-262 420.5,-262 420.5,-272 420.5,-272 420.5,-277 415.5,-282 410.5,-282"/>
<text text-anchor="middle" x="386" y="-263.6" font-family="Helvetica,sans-Serif" font-size="13.00" fill="white">pipeline</text>
</g>
<!-- citegraph.api&#45;&gt;citegraph.pipeline -->
<g id="edge5" class="edge">
<title>citegraph.api&#45;&gt;citegraph.pipeline</title>
<path fill="none" stroke="#7f7f7f" d="M386,-335.72C386,-322.9 386,-303.91 386,-289.3"/>
<polygon fill="#7f7f7f" stroke="#7f7f7f" points="388.45,-289.12 386,-282.12 383.55,-289.12 388.45,-289.12"/>
</g>
<!-- citegraph.providers -->
<g id="node12" class="node">
<title>citegraph.providers</title>
<path fill="#9dc3e6" stroke="#dddddd" d="M93,-114C93,-114 35,-114 35,-114 30,-114 25,-109 25,-104 25,-104 25,-94 25,-94 25,-89 30,-84 35,-84 35,-84 93,-84 93,-84 98,-84 103,-89 103,-94 103,-94 103,-104 103,-104 103,-109 98,-114 93,-114"/>
<text text-anchor="middle" x="64" y="-95.6" font-family="Helvetica,sans-Serif" font-size="13.00" fill="#10243a">providers</text>
</g>
<!-- citegraph.api&#45;&gt;citegraph.providers -->
<g id="edge6" class="edge">
<title>citegraph.api&#45;&gt;citegraph.providers</title>
<path fill="none" stroke="#7f7f7f" d="M358.93,-336.51C284.29,-299.31 81,-198 81,-198 81,-198 72.69,-150.09 67.69,-121.26"/>
<polygon fill="#7f7f7f" stroke="#7f7f7f" points="70.05,-120.52 66.44,-114.04 65.22,-121.36 70.05,-120.52"/>
</g>
<!-- citegraph.storage -->
<g id="node13" class="node">
<title>citegraph.storage</title>
<path fill="#bdd7ee" stroke="#dddddd" d="M132.5,-30C132.5,-30 85.5,-30 85.5,-30 80.5,-30 75.5,-25 75.5,-20 75.5,-20 75.5,-10 75.5,-10 75.5,-5 80.5,0 85.5,0 85.5,0 132.5,0 132.5,0 137.5,0 142.5,-5 142.5,-10 142.5,-10 142.5,-20 142.5,-20 142.5,-25 137.5,-30 132.5,-30"/>
<text text-anchor="middle" x="109" y="-11.6" font-family="Helvetica,sans-Serif" font-size="13.00" fill="#10243a">storage</text>
</g>
<!-- citegraph.api&#45;&gt;citegraph.storage -->
<g id="edge7" class="edge">
<title>citegraph.api&#45;&gt;citegraph.storage</title>
<path fill="none" stroke="#7f7f7f" d="M358.96,-342.46C295.43,-324.76 142,-282 142,-282 142,-282 43,-198 43,-198 43,-198 0,-114 0,-114 0,-114 0,-84 0,-84 0,-84 47.89,-54.12 80.18,-33.98"/>
<polygon fill="#7f7f7f" stroke="#7f7f7f" points="81.77,-35.87 86.42,-30.09 79.18,-31.72 81.77,-35.87"/>
</g>
<!-- citegraph.utils -->
<g id="node14" class="node">
<title>citegraph.utils</title>
<path fill="#bdd7ee" stroke="#dddddd" d="M311,-30C311,-30 277,-30 277,-30 272,-30 267,-25 267,-20 267,-20 267,-10 267,-10 267,-5 272,0 277,0 277,0 311,0 311,0 316,0 321,-5 321,-10 321,-10 321,-20 321,-20 321,-25 316,-30 311,-30"/>
<text text-anchor="middle" x="294" y="-11.6" font-family="Helvetica,sans-Serif" font-size="13.00" fill="#10243a">utils</text>
</g>
<!-- citegraph.api&#45;&gt;citegraph.utils -->
<g id="edge8" class="edge">
<title>citegraph.api&#45;&gt;citegraph.utils</title>
<path fill="none" stroke="#7f7f7f" stroke-width="1.35" d="M411.69,-335.91C448.01,-315.99 510,-282 510,-282 510,-282 636,-198 636,-198 636,-198 636,-168 636,-168 636,-168 413.74,-69.22 327.57,-30.92"/>
<polygon fill="#7f7f7f" stroke="#7f7f7f" stroke-width="1.35" points="328.51,-28.66 321.12,-28.05 326.52,-33.14 328.51,-28.66"/>
</g>
<!-- citegraph.vision -->
<g id="node15" class="node">
<title>citegraph.vision</title>
<path fill="#bdd7ee" stroke="#dddddd" d="M316.5,-282C316.5,-282 281.5,-282 281.5,-282 276.5,-282 271.5,-277 271.5,-272 271.5,-272 271.5,-262 271.5,-262 271.5,-257 276.5,-252 281.5,-252 281.5,-252 316.5,-252 316.5,-252 321.5,-252 326.5,-257 326.5,-262 326.5,-262 326.5,-272 326.5,-272 326.5,-277 321.5,-282 316.5,-282"/>
<text text-anchor="middle" x="299" y="-263.6" font-family="Helvetica,sans-Serif" font-size="13.00" fill="#10243a">vision</text>
</g>
<!-- citegraph.api&#45;&gt;citegraph.vision -->
<g id="edge9" class="edge">
<title>citegraph.api&#45;&gt;citegraph.vision</title>
<path fill="none" stroke="#7f7f7f" stroke-width="1.35" d="M370.85,-335.72C356.5,-322.19 334.87,-301.81 319.09,-286.93"/>
<polygon fill="#7f7f7f" stroke="#7f7f7f" stroke-width="1.35" points="320.76,-285.14 313.98,-282.12 317.39,-288.7 320.76,-285.14"/>
</g>
<!-- citegraph.citations -->
<g id="node2" class="node">
<title>citegraph.citations</title>
<path fill="#5b9bd5" stroke="#dddddd" d="M217,-198C217,-198 163,-198 163,-198 158,-198 153,-193 153,-188 153,-188 153,-178 153,-178 153,-173 158,-168 163,-168 163,-168 217,-168 217,-168 222,-168 227,-173 227,-178 227,-178 227,-188 227,-188 227,-193 222,-198 217,-198"/>
<text text-anchor="middle" x="190" y="-179.6" font-family="Helvetica,sans-Serif" font-size="13.00" fill="#10243a">citations</text>
</g>
<!-- citegraph.citations&#45;&gt;citegraph.config -->
<g id="edge10" class="edge">
<title>citegraph.citations&#45;&gt;citegraph.config</title>
<path fill="none" stroke="#7f7f7f" d="M224.96,-167.96C292.43,-140.86 434,-84 434,-84 434,-84 553.75,-46.48 615.33,-27.18"/>
<polygon fill="#7f7f7f" stroke="#7f7f7f" points="616.24,-29.46 622.18,-25.03 614.77,-24.79 616.24,-29.46"/>
</g>
<!-- citegraph.metadata -->
<g id="node8" class="node">
<title>citegraph.metadata</title>
<path fill="#5b9bd5" stroke="#dddddd" d="M323.5,-198C323.5,-198 262.5,-198 262.5,-198 257.5,-198 252.5,-193 252.5,-188 252.5,-188 252.5,-178 252.5,-178 252.5,-173 257.5,-168 262.5,-168 262.5,-168 323.5,-168 323.5,-168 328.5,-168 333.5,-173 333.5,-178 333.5,-178 333.5,-188 333.5,-188 333.5,-193 328.5,-198 323.5,-198"/>
<text text-anchor="middle" x="293" y="-179.6" font-family="Helvetica,sans-Serif" font-size="13.00" fill="#10243a">metadata</text>
</g>
<!-- citegraph.citations&#45;&gt;citegraph.metadata -->
<g id="edge11" class="edge">
<title>citegraph.citations&#45;&gt;citegraph.metadata</title>
<path fill="none" stroke="#7f7f7f" d="M227.03,-183C230.94,-183 238.45,-183 245.17,-183"/>
<polygon fill="#7f7f7f" stroke="#7f7f7f" points="245.44,-185.45 252.44,-183 245.44,-180.55 245.44,-185.45"/>
</g>
<!-- citegraph.citations&#45;&gt;citegraph.models -->
<g id="edge12" class="edge">
<title>citegraph.citations&#45;&gt;citegraph.models</title>
<path fill="none" stroke="#7f7f7f" stroke-width="1.7" d="M186.48,-167.91C181.5,-147.99 173,-114 173,-114 173,-114 173,-84 173,-84 173,-84 183.8,-56.8 191.74,-36.81"/>
<polygon fill="#7f7f7f" stroke="#7f7f7f" stroke-width="1.7" points="194.1,-37.5 194.41,-30.09 189.55,-35.69 194.1,-37.5"/>
</g>
<!-- citegraph.citations&#45;&gt;citegraph.providers -->
<g id="edge13" class="edge">
<title>citegraph.citations&#45;&gt;citegraph.providers</title>
<path fill="none" stroke="#7f7f7f" stroke-width="1.7" d="M168.34,-167.9C147.15,-154.12 114.8,-133.06 91.74,-118.06"/>
<polygon fill="#7f7f7f" stroke="#7f7f7f" stroke-width="1.7" points="93,-115.95 85.8,-114.19 90.33,-120.06 93,-115.95"/>
</g>
<!-- citegraph.citations&#45;&gt;citegraph.utils -->
<g id="edge14" class="edge">
<title>citegraph.citations&#45;&gt;citegraph.utils</title>
<path fill="none" stroke="#7f7f7f" d="M198.87,-167.85C217.36,-138.32 260.11,-70.09 281.43,-36.06"/>
<polygon fill="#7f7f7f" stroke="#7f7f7f" points="283.52,-37.35 285.16,-30.12 279.36,-34.75 283.52,-37.35"/>
</g>
<!-- citegraph.graph&#45;&gt;citegraph.config -->
<g id="edge15" class="edge">
<title>citegraph.graph&#45;&gt;citegraph.config</title>
<path fill="none" stroke="#7f7f7f" d="M623.51,-172.83C679.2,-154.27 800,-114 800,-114 800,-114 800,-84 800,-84 800,-84 730.36,-52.22 686.3,-32.11"/>
<polygon fill="#7f7f7f" stroke="#7f7f7f" points="687.11,-29.79 679.73,-29.11 685.08,-34.25 687.11,-29.79"/>
</g>
<!-- citegraph.graph&#45;&gt;citegraph.models -->
<g id="edge16" class="edge">
<title>citegraph.graph&#45;&gt;citegraph.models</title>
<path fill="none" stroke="#7f7f7f" stroke-width="2.4" d="M568.47,-170.46C499.46,-141.53 318.93,-65.85 239.02,-32.36"/>
<polygon fill="#7f7f7f" stroke="#7f7f7f" stroke-width="2.4" points="239.93,-30.08 232.53,-29.63 238.03,-34.6 239.93,-30.08"/>
</g>
<!-- citegraph.input -->
<g id="node5" class="node">
<title>citegraph.input</title>
<path fill="#5b9bd5" stroke="#dddddd" d="M403,-198C403,-198 369,-198 369,-198 364,-198 359,-193 359,-188 359,-188 359,-178 359,-178 359,-173 364,-168 369,-168 369,-168 403,-168 403,-168 408,-168 413,-173 413,-178 413,-178 413,-188 413,-188 413,-193 408,-198 403,-198"/>
<text text-anchor="middle" x="386" y="-179.6" font-family="Helvetica,sans-Serif" font-size="13.00" fill="#10243a">input</text>
</g>
<!-- citegraph.input&#45;&gt;citegraph.models -->
<g id="edge17" class="edge">
<title>citegraph.input&#45;&gt;citegraph.models</title>
<path fill="none" stroke="#7f7f7f" stroke-width="1.35" d="M370.14,-167.85C336.65,-137.95 258.7,-68.38 221.07,-34.8"/>
<polygon fill="#7f7f7f" stroke="#7f7f7f" stroke-width="1.35" points="222.67,-32.95 215.82,-30.12 219.41,-36.61 222.67,-32.95"/>
</g>
<!-- citegraph.input&#45;&gt;citegraph.utils -->
<g id="edge18" class="edge">
<title>citegraph.input&#45;&gt;citegraph.utils</title>
<path fill="none" stroke="#7f7f7f" stroke-width="1.35" d="M378.16,-167.85C361.86,-138.44 324.29,-70.66 305.35,-36.48"/>
<polygon fill="#7f7f7f" stroke="#7f7f7f" stroke-width="1.35" points="307.36,-35.05 301.82,-30.12 303.07,-37.43 307.36,-35.05"/>
</g>
<!-- citegraph.llm -->
<g id="node6" class="node">
<title>citegraph.llm</title>
<path fill="#bdd7ee" stroke="#dddddd" d="M733,-114C733,-114 699,-114 699,-114 694,-114 689,-109 689,-104 689,-104 689,-94 689,-94 689,-89 694,-84 699,-84 699,-84 733,-84 733,-84 738,-84 743,-89 743,-94 743,-94 743,-104 743,-104 743,-109 738,-114 733,-114"/>
<text text-anchor="middle" x="716" y="-95.6" font-family="Helvetica,sans-Serif" font-size="13.00" fill="#10243a">llm</text>
</g>
<!-- citegraph.llm&#45;&gt;citegraph.config -->
<g id="edge19" class="edge">
<title>citegraph.llm&#45;&gt;citegraph.config</title>
<path fill="none" stroke="#7f7f7f" stroke-width="1.7" d="M704.68,-83.72C694.15,-70.43 678.36,-50.51 666.63,-35.71"/>
<polygon fill="#7f7f7f" stroke="#7f7f7f" stroke-width="1.7" points="668.46,-34.08 662.19,-30.12 664.62,-37.13 668.46,-34.08"/>
</g>
<!-- citegraph.logging_config&#45;&gt;citegraph.config -->
<g id="edge20" class="edge">
<title>citegraph.logging_config&#45;&gt;citegraph.config</title>
<path fill="none" stroke="#7f7f7f" d="M967.11,-167.96C946.1,-140.86 902,-84 902,-84 902,-84 755.93,-44.43 686.65,-25.66"/>
<polygon fill="#7f7f7f" stroke="#7f7f7f" points="687.19,-23.27 679.79,-23.8 685.91,-28 687.19,-23.27"/>
</g>
<!-- citegraph.metadata&#45;&gt;citegraph.config -->
<g id="edge21" class="edge">
<title>citegraph.metadata&#45;&gt;citegraph.config</title>
<path fill="none" stroke="#7f7f7f" d="M323.21,-167.99C389.19,-137.4 545.83,-64.77 615.98,-32.24"/>
<polygon fill="#7f7f7f" stroke="#7f7f7f" points="617.17,-34.39 622.49,-29.22 615.11,-29.94 617.17,-34.39"/>
</g>
<!-- citegraph.metadata&#45;&gt;citegraph.input -->
<g id="edge22" class="edge">
<title>citegraph.metadata&#45;&gt;citegraph.input</title>
<path fill="none" stroke="#7f7f7f" d="M333.81,-183C339.48,-183 346.34,-183 351.62,-183"/>
<polygon fill="#7f7f7f" stroke="#7f7f7f" points="351.8,-185.45 358.8,-183 351.8,-180.55 351.8,-185.45"/>
</g>
<!-- citegraph.metadata&#45;&gt;citegraph.models -->
<g id="edge23" class="edge">
<title>citegraph.metadata&#45;&gt;citegraph.models</title>
<path fill="none" stroke="#7f7f7f" stroke-width="1.35" d="M278.7,-167.91C258.49,-147.99 224,-114 224,-114 224,-114 212.17,-65.68 205.12,-36.9"/>
<polygon fill="#7f7f7f" stroke="#7f7f7f" stroke-width="1.35" points="207.48,-36.26 203.44,-30.04 202.72,-37.42 207.48,-36.26"/>
</g>
<!-- citegraph.metadata&#45;&gt;citegraph.providers -->
<g id="edge24" class="edge">
<title>citegraph.metadata&#45;&gt;citegraph.providers</title>
<path fill="none" stroke="#7f7f7f" stroke-width="2.4" d="M253.89,-168C214,-153.71 152.13,-131.56 109.93,-116.45"/>
<polygon fill="#7f7f7f" stroke="#7f7f7f" stroke-width="2.4" points="110.74,-114.14 103.33,-114.08 109.09,-118.75 110.74,-114.14"/>
</g>
<!-- citegraph.models&#45;&gt;citegraph.config -->
<g id="edge25" class="edge">
<title>citegraph.models&#45;&gt;citegraph.config</title>
<path fill="none" stroke="#7f7f7f" d="M224.01,-30.16C243.06,-42.19 266.5,-57 266.5,-57 266.5,-57 320.5,-57 320.5,-57 320.5,-57 529.48,-30.44 615.09,-19.56"/>
<polygon fill="#7f7f7f" stroke="#7f7f7f" points="615.61,-21.97 622.25,-18.65 615,-17.11 615.61,-21.97"/>
</g>
<!-- citegraph.models&#45;&gt;citegraph.utils -->
<g id="edge26" class="edge">
<title>citegraph.models&#45;&gt;citegraph.utils</title>
<path fill="none" stroke="#7f7f7f" d="M232.68,-15C237.04,-15 250.89,-15 259.72,-15"/>
<polygon fill="#7f7f7f" stroke="#7f7f7f" points="259.76,-17.45 266.76,-15 259.76,-12.55 259.76,-17.45"/>
</g>
<!-- citegraph.nlp -->
<g id="node10" class="node">
<title>citegraph.nlp</title>
<path fill="#5b9bd5" stroke="#dddddd" d="M482,-198C482,-198 448,-198 448,-198 443,-198 438,-193 438,-188 438,-188 438,-178 438,-178 438,-173 443,-168 448,-168 448,-168 482,-168 482,-168 487,-168 492,-173 492,-178 492,-178 492,-188 492,-188 492,-193 487,-198 482,-198"/>
<text text-anchor="middle" x="465" y="-179.6" font-family="Helvetica,sans-Serif" font-size="13.00" fill="#10243a">nlp</text>
</g>
<!-- citegraph.nlp&#45;&gt;citegraph.config -->
<g id="edge27" class="edge">
<title>citegraph.nlp&#45;&gt;citegraph.config</title>
<path fill="none" stroke="#7f7f7f" d="M480.86,-167.85C514.35,-137.95 592.3,-68.38 629.93,-34.8"/>
<polygon fill="#7f7f7f" stroke="#7f7f7f" points="631.59,-36.61 635.18,-30.12 628.33,-32.95 631.59,-36.61"/>
</g>
<!-- citegraph.nlp&#45;&gt;citegraph.llm -->
<g id="edge28" class="edge">
<title>citegraph.nlp&#45;&gt;citegraph.llm</title>
<path fill="none" stroke="#7f7f7f" stroke-width="1.7" d="M492.34,-173.07C538.45,-158 631.57,-127.58 681.89,-111.14"/>
<polygon fill="#7f7f7f" stroke="#7f7f7f" stroke-width="1.7" points="682.8,-113.42 688.69,-108.92 681.28,-108.77 682.8,-113.42"/>
</g>
<!-- citegraph.nlp&#45;&gt;citegraph.models -->
<g id="edge29" class="edge">
<title>citegraph.nlp&#45;&gt;citegraph.models</title>
<path fill="none" stroke="#7f7f7f" stroke-width="1.7" d="M443.08,-167.96C400.77,-140.86 312,-84 312,-84 312,-84 262.38,-53.87 229.2,-33.73"/>
<polygon fill="#7f7f7f" stroke="#7f7f7f" stroke-width="1.7" points="230.46,-31.63 223.21,-30.09 227.92,-35.82 230.46,-31.63"/>
</g>
<!-- citegraph.pipeline&#45;&gt;citegraph.citations -->
<g id="edge30" class="edge">
<title>citegraph.pipeline&#45;&gt;citegraph.citations</title>
<path fill="none" stroke="#7f7f7f" stroke-width="1.35" d="M352.31,-251.9C318.41,-237.72 266.13,-215.85 230.11,-200.78"/>
<polygon fill="#7f7f7f" stroke="#7f7f7f" stroke-width="1.35" points="230.98,-198.49 223.58,-198.05 229.09,-203.01 230.98,-198.49"/>
</g>
<!-- citegraph.pipeline&#45;&gt;citegraph.config -->
<g id="edge31" class="edge">
<title>citegraph.pipeline&#45;&gt;citegraph.config</title>
<path fill="none" stroke="#7f7f7f" d="M410.45,-251.91C445.01,-231.99 504,-198 504,-198 504,-198 556,-168 556,-168 556,-168 755,-114 755,-114 755,-114 755,-84 755,-84 755,-84 709.31,-54.12 678.49,-33.98"/>
<polygon fill="#7f7f7f" stroke="#7f7f7f" points="679.75,-31.87 672.55,-30.09 677.07,-35.97 679.75,-31.87"/>
</g>
<!-- citegraph.pipeline&#45;&gt;citegraph.graph -->
<g id="edge32" class="edge">
<title>citegraph.pipeline&#45;&gt;citegraph.graph</title>
<path fill="none" stroke="#7f7f7f" stroke-width="1.7" d="M420.68,-252.46C459.61,-237.26 522.42,-212.73 561.34,-197.53"/>
<polygon fill="#7f7f7f" stroke="#7f7f7f" stroke-width="1.7" points="562.69,-199.64 568.32,-194.81 560.91,-195.07 562.69,-199.64"/>
</g>
<!-- citegraph.pipeline&#45;&gt;citegraph.input -->
<g id="edge33" class="edge">
<title>citegraph.pipeline&#45;&gt;citegraph.input</title>
<path fill="none" stroke="#7f7f7f" d="M386,-251.72C386,-238.9 386,-219.91 386,-205.3"/>
<polygon fill="#7f7f7f" stroke="#7f7f7f" points="388.45,-205.12 386,-198.12 383.55,-205.12 388.45,-205.12"/>
</g>
<!-- citegraph.pipeline&#45;&gt;citegraph.metadata -->
<g id="edge34" class="edge">
<title>citegraph.pipeline&#45;&gt;citegraph.metadata</title>
<path fill="none" stroke="#7f7f7f" d="M369.8,-251.72C354.46,-238.19 331.34,-217.81 314.47,-202.93"/>
<polygon fill="#7f7f7f" stroke="#7f7f7f" points="315.88,-200.91 309.01,-198.12 312.64,-204.59 315.88,-200.91"/>
</g>
<!-- citegraph.pipeline&#45;&gt;citegraph.models -->
<g id="edge35" class="edge">
<title>citegraph.pipeline&#45;&gt;citegraph.models</title>
<path fill="none" stroke="#7f7f7f" stroke-width="2.4" d="M351.35,-255.68C344.3,-253.58 339,-252 339,-252 339,-252 112,-198 112,-198 112,-198 12,-114 12,-114 12,-114 12,-84 12,-84 12,-84 105.24,-50.27 160.4,-30.32"/>
<polygon fill="#7f7f7f" stroke="#7f7f7f" stroke-width="2.4" points="161.5,-32.53 167.25,-27.84 159.84,-27.92 161.5,-32.53"/>
</g>
<!-- citegraph.pipeline&#45;&gt;citegraph.nlp -->
<g id="edge36" class="edge">
<title>citegraph.pipeline&#45;&gt;citegraph.nlp</title>
<path fill="none" stroke="#7f7f7f" stroke-width="1.7" d="M399.76,-251.72C412.67,-238.31 432.09,-218.16 446.38,-203.32"/>
<polygon fill="#7f7f7f" stroke="#7f7f7f" stroke-width="1.7" points="448.3,-204.86 451.4,-198.12 444.78,-201.46 448.3,-204.86"/>
</g>
<!-- citegraph.pipeline&#45;&gt;citegraph.providers -->
<g id="edge37" class="edge">
<title>citegraph.pipeline&#45;&gt;citegraph.providers</title>
<path fill="none" stroke="#7f7f7f" stroke-width="1.35" d="M351.35,-255.68C344.3,-253.58 339,-252 339,-252 339,-252 140,-198 140,-198 140,-198 101.57,-148.44 79.36,-119.81"/>
<polygon fill="#7f7f7f" stroke="#7f7f7f" stroke-width="1.35" points="81.11,-118.07 74.89,-114.04 77.24,-121.07 81.11,-118.07"/>
</g>
<!-- citegraph.providers&#45;&gt;citegraph.config -->
<g id="edge38" class="edge">
<title>citegraph.providers&#45;&gt;citegraph.config</title>
<path fill="none" stroke="#7f7f7f" d="M103.43,-92.49C211.5,-77.4 511.28,-35.52 615.08,-21.02"/>
<polygon fill="#7f7f7f" stroke="#7f7f7f" points="615.61,-23.42 622.21,-20.02 614.93,-18.56 615.61,-23.42"/>
</g>
<!-- citegraph.providers&#45;&gt;citegraph.models -->
<g id="edge39" class="edge">
<title>citegraph.providers&#45;&gt;citegraph.models</title>
<path fill="none" stroke="#7f7f7f" stroke-width="3.2" d="M87.38,-83.9C110.34,-70.06 145.46,-48.88 170.37,-33.86"/>
<polygon fill="#7f7f7f" stroke="#7f7f7f" stroke-width="3.2" points="171.74,-35.9 176.47,-30.19 169.21,-31.7 171.74,-35.9"/>
</g>
<!-- citegraph.providers&#45;&gt;citegraph.utils -->
<g id="edge40" class="edge">
<title>citegraph.providers&#45;&gt;citegraph.utils</title>
<path fill="none" stroke="#7f7f7f" stroke-width="1.7" d="M103.02,-84.09C147.09,-68.38 218.1,-43.06 260,-28.12"/>
<polygon fill="#7f7f7f" stroke="#7f7f7f" stroke-width="1.7" points="260.94,-30.39 266.71,-25.73 259.29,-25.77 260.94,-30.39"/>
</g>
<!-- citegraph.storage&#45;&gt;citegraph.config -->
<g id="edge41" class="edge">
<title>citegraph.storage&#45;&gt;citegraph.config</title>
<path fill="none" stroke="#7f7f7f" d="M130.12,-30.16C146.88,-42.19 167.5,-57 167.5,-57 167.5,-57 320.5,-57 320.5,-57 320.5,-57 529.48,-30.44 615.09,-19.56"/>
<polygon fill="#7f7f7f" stroke="#7f7f7f" points="615.61,-21.97 622.25,-18.65 615,-17.11 615.61,-21.97"/>
</g>
<!-- citegraph.storage&#45;&gt;citegraph.models -->
<g id="edge42" class="edge">
<title>citegraph.storage&#45;&gt;citegraph.models</title>
<path fill="none" stroke="#7f7f7f" d="M142.58,-15C146.69,-15 153.95,-15 159.92,-15"/>
<polygon fill="#7f7f7f" stroke="#7f7f7f" points="160.22,-17.45 167.22,-15 160.22,-12.55 160.22,-17.45"/>
</g>
<!-- citegraph.vision&#45;&gt;citegraph.nlp -->
<g id="edge43" class="edge">
<title>citegraph.vision&#45;&gt;citegraph.nlp</title>
<path fill="none" stroke="#7f7f7f" d="M326.78,-252.28C355.65,-238.02 400.82,-215.7 431.61,-200.49"/>
<polygon fill="#7f7f7f" stroke="#7f7f7f" points="432.76,-202.66 437.95,-197.36 430.59,-198.26 432.76,-202.66"/>
</g>
<!-- citegraph.vision&#45;&gt;citegraph.providers -->
<g id="edge44" class="edge">
<title>citegraph.vision&#45;&gt;citegraph.providers</title>
<path fill="none" stroke="#7f7f7f" d="M271.2,-256.69C215.6,-238.06 96,-198 96,-198 96,-198 80.22,-149.68 70.82,-120.9"/>
<polygon fill="#7f7f7f" stroke="#7f7f7f" points="73.09,-119.93 68.58,-114.04 68.43,-121.46 73.09,-119.93"/>
</g>
</g>
</svg>
