<?xml version="1.0" encoding="UTF-8" standalone="no"?>
<!DOCTYPE svg PUBLIC "-//W3C//DTD SVG 1.1//EN"
 "http://www.w3.org/Graphics/SVG/1.1/DTD/svg11.dtd">
<!-- Generated by graphviz version 13.1.0 (20250701.0955)
 -->
<!-- Title: G Pages: 1 -->
<svg width="725pt" height="1240pt"
 viewBox="0.00 0.00 725.00 1240.00" xmlns="http://www.w3.org/2000/svg" xmlns:xlink="http://www.w3.org/1999/xlink">
<g id="graph0" class="graph" transform="scale(1 1) rotate(0) translate(4 1236)">
<title>G</title>
<polygon fill="white" stroke="none" points="-4,4 -4,-1236 720.5,-1236 720.5,4 -4,4"/>
<g id="clust2" class="cluster">
<title>cluster_fdf2624b</title>
<polygon fill="none" stroke="black" stroke-dasharray="1,5" points="286,-998 286,-1224 680.38,-1224 680.38,-998 286,-998"/>
<text xml:space="preserve" text-anchor="middle" x="483.19" y="-1206.7" font-family="Times New Roman,serif" font-size="14.00">File: analytics</text>
</g>
<g id="clust3" class="cluster">
<title>cluster_bc01d008</title>
<polygon fill="none" stroke="black" stroke-dasharray="1,5" points="294,-1006 294,-1191 672.38,-1191 672.38,-1006 294,-1006"/>
<text xml:space="preserve" text-anchor="middle" x="483.19" y="-1173.7" font-family="Times New Roman,serif" font-size="14.00">Class: GraphAnalytics</text>
</g>
<g id="clust4" class="cluster">
<title>cluster_8543abed</title>
<polygon fill="none" stroke="black" stroke-dasharray="1,5" points="324.5,-746 324.5,-864 467.5,-864 467.5,-746 324.5,-746"/>
<text xml:space="preserve" text-anchor="middle" x="396" y="-846.7" font-family="Times New Roman,serif" font-size="14.00">File: builder</text>
</g>
<g id="clust5" class="cluster">
<title>cluster_830e6159</title>
<polygon fill="none" stroke="black" stroke-dasharray="1,5" points="332.5,-754 332.5,-831 459.5,-831 459.5,-754 332.5,-754"/>
<text xml:space="preserve" text-anchor="middle" x="396" y="-813.7" font-family="Times New Roman,serif" font-size="14.00">Class: GraphBuilder</text>
</g>
<g id="clust6" class="cluster">
<title>cluster_ff42fe30</title>
<polygon fill="none" stroke="black" stroke-dasharray="1,5" points="509,-872 509,-990 708.5,-990 708.5,-872 509,-872"/>
<text xml:space="preserve" text-anchor="middle" x="608.75" y="-972.7" font-family="Times New Roman,serif" font-size="14.00">File: europe_pmc</text>
</g>
<g id="clust7" class="cluster">
<title>cluster_b8ce8312</title>
<polygon fill="none" stroke="black" stroke-dasharray="1,5" points="517,-880 517,-957 700.5,-957 700.5,-880 517,-880"/>
<text xml:space="preserve" text-anchor="middle" x="608.75" y="-939.7" font-family="Times New Roman,serif" font-size="14.00">Class: EuropePMCProvider</text>
</g>
<g id="clust8" class="cluster">
<title>cluster_73482a20</title>
<polygon fill="none" stroke="black" stroke-dasharray="1,5" points="529.12,-8 529.12,-126 689.38,-126 689.38,-8 529.12,-8"/>
<text xml:space="preserve" text-anchor="middle" x="609.25" y="-108.7" font-family="Times New Roman,serif" font-size="14.00">File: merger</text>
</g>
<g id="clust9" class="cluster">
<title>cluster_cc4e0b63</title>
<polygon fill="none" stroke="black" stroke-dasharray="1,5" points="537.12,-16 537.12,-93 681.38,-93 681.38,-16 537.12,-16"/>
<text xml:space="preserve" text-anchor="middle" x="609.25" y="-75.7" font-family="Times New Roman,serif" font-size="14.00">Class: MetadataMerger</text>
</g>
<g id="clust10" class="cluster">
<title>cluster_15665126</title>
<polygon fill="none" stroke="black" stroke-dasharray="1,5" points="310.38,-620 310.38,-738 480.62,-738 480.62,-620 310.38,-620"/>
<text xml:space="preserve" text-anchor="middle" x="395.5" y="-720.7" font-family="Times New Roman,serif" font-size="14.00">File: normalizer</text>
</g>
<g id="clust11" class="cluster">
<title>cluster_0f5f8fc1</title>
<polygon fill="none" stroke="black" stroke-dasharray="1,5" points="318.38,-628 318.38,-705 472.62,-705 472.62,-628 318.38,-628"/>
<text xml:space="preserve" text-anchor="middle" x="395.5" y="-687.7" font-family="Times New Roman,serif" font-size="14.00">Class: InputNormalizer</text>
</g>
<g id="clust12" class="cluster">
<title>cluster_cc9ef7b4</title>
<polygon fill="none" stroke="black" stroke-dasharray="1,5" points="523.88,-134 523.88,-252 694.62,-252 694.62,-134 523.88,-134"/>
<text xml:space="preserve" text-anchor="middle" x="609.25" y="-234.7" font-family="Times New Roman,serif" font-size="14.00">File: openalex</text>
</g>
<g id="clust13" class="cluster">
<title>cluster_e5c216ae</title>
<polygon fill="none" stroke="black" stroke-dasharray="1,5" points="531.88,-142 531.88,-219 686.62,-219 686.62,-142 531.88,-142"/>
<text xml:space="preserve" text-anchor="middle" x="609.25" y="-201.7" font-family="Times New Roman,serif" font-size="14.00">Class: OpenAlexProvider</text>
</g>
<g id="clust14" class="cluster">
<title>cluster_14ce5d21</title>
<polygon fill="none" stroke="black" stroke-dasharray="1,5" points="85,-872 85,-990 485.5,-990 485.5,-872 85,-872"/>
<text xml:space="preserve" text-anchor="middle" x="285.25" y="-972.7" font-family="Times New Roman,serif" font-size="14.00">File: orchestrator</text>
</g>
<g id="clust15" class="cluster">
<title>cluster_05f4e845</title>
<polygon fill="none" stroke="black" stroke-dasharray="1,5" points="93,-880 93,-957 477.5,-957 477.5,-880 93,-880"/>
<text xml:space="preserve" text-anchor="middle" x="285.25" y="-939.7" font-family="Times New Roman,serif" font-size="14.00">Class: PipelineOrchestrator</text>
</g>
<g id="clust16" class="cluster">
<title>cluster_c167c326</title>
<polygon fill="none" stroke="black" stroke-dasharray="1,5" points="306.25,-494 306.25,-612 484.75,-612 484.75,-494 306.25,-494"/>
<text xml:space="preserve" text-anchor="middle" x="395.5" y="-594.7" font-family="Times New Roman,serif" font-size="14.00">File: population_extractor</text>
</g>
<g id="clust17" class="cluster">
<title>cluster_cf178b2e</title>
<polygon fill="none" stroke="black" stroke-dasharray="1,5" points="314.25,-502 314.25,-579 476.75,-579 476.75,-502 314.25,-502"/>
<text xml:space="preserve" text-anchor="middle" x="395.5" y="-561.7" font-family="Times New Roman,serif" font-size="14.00">Class: PopulationExtractor</text>
</g>
<g id="clust18" class="cluster">
<title>cluster_ddb287aa</title>
<polygon fill="none" stroke="black" stroke-dasharray="1,5" points="312.12,-134 312.12,-252 479.88,-252 479.88,-134 312.12,-134"/>
<text xml:space="preserve" text-anchor="middle" x="396" y="-234.7" font-family="Times New Roman,serif" font-size="14.00">File: resolver</text>
</g>
<g id="clust19" class="cluster">
<title>cluster_dc177f9f</title>
<polygon fill="none" stroke="black" stroke-dasharray="1,5" points="320.12,-142 320.12,-219 471.88,-219 471.88,-142 320.12,-142"/>
<text xml:space="preserve" text-anchor="middle" x="396" y="-201.7" font-family="Times New Roman,serif" font-size="14.00">Class: MetadataResolver</text>
</g>
<g id="clust20" class="cluster">
<title>cluster_9c3f989c</title>
<polygon fill="none" stroke="black" stroke-dasharray="1,5" points="331.75,-260 331.75,-486 697.25,-486 697.25,-260 331.75,-260"/>
<text xml:space="preserve" text-anchor="middle" x="514.5" y="-468.7" font-family="Times New Roman,serif" font-size="14.00">File: traversal</text>
</g>
<g id="clust21" class="cluster">
<title>cluster_46d5541f</title>
<polygon fill="none" stroke="black" stroke-dasharray="1,5" points="339.75,-268 339.75,-453 689.25,-453 689.25,-268 339.75,-268"/>
<text xml:space="preserve" text-anchor="middle" x="514.5" y="-435.7" font-family="Times New Roman,serif" font-size="14.00">Class: CitationTraversal</text>
</g>
<g id="clust22" class="cluster">
<title>cluster_2c9a881e</title>
<polygon fill="none" stroke="black" stroke-dasharray="1,5" points="308.12,-8 308.12,-126 482.88,-126 482.88,-8 308.12,-8"/>
<text xml:space="preserve" text-anchor="middle" x="395.5" y="-108.7" font-family="Times New Roman,serif" font-size="14.00">File: weighting</text>
</g>
<g id="clust23" class="cluster">
<title>cluster_227ee880</title>
<polygon fill="none" stroke="black" stroke-dasharray="1,5" points="316.12,-16 316.12,-93 474.88,-93 474.88,-16 316.12,-16"/>
<text xml:space="preserve" text-anchor="middle" x="395.5" y="-75.7" font-family="Times New Roman,serif" font-size="14.00">Class: WeightCalculator</text>
</g>
<!-- Legend -->
<g id="node1" class="node">
<title>Legend</title>
<polygon fill="none" stroke="black" points="1,-844.75 1,-863.25 265,-863.25 265,-844.75 1,-844.75"/>
<text xml:space="preserve" text-anchor="start" x="80.88" y="-848.95" font-family="Times New Roman,serif" font-size="14.00">Code2flow Legend</text>
<polygon fill="none" stroke="black" points="1,-750.75 1,-844.75 265,-844.75 265,-750.75 1,-750.75"/>
<polygon fill="none" stroke="black" points="3,-820.25 3,-842.75 213,-842.75 213,-820.25 3,-820.25"/>
<text xml:space="preserve" text-anchor="start" x="62.25" y="-826.45" font-family="Times New Roman,serif" font-size="14.00">Regular function</text>
<polygon fill="#cccccc" stroke="none" points="213,-820.25 213,-842.75 263,-842.75 263,-820.25 213,-820.25"/>
<polygon fill="none" stroke="black" points="213,-820.25 213,-842.75 263,-842.75 263,-820.25 213,-820.25"/>
<polygon fill="none" stroke="black" points="3,-797.75 3,-820.25 213,-820.25 213,-797.75 3,-797.75"/>
<text xml:space="preserve" text-anchor="start" x="14.25" y="-803.95" font-family="Times New Roman,serif" font-size="14.00">Trunk function (nothing calls this)</text>
<polygon fill="#966f33" stroke="none" points="213,-797.75 213,-820.25 263,-820.25 263,-797.75 213,-797.75"/>
<polygon fill="none" stroke="black" points="213,-797.75 213,-820.25 263,-820.25 263,-797.75 213,-797.75"/>
<polygon fill="none" stroke="black" points="3,-775.25 3,-797.75 213,-797.75 213,-775.25 3,-775.25"/>
<text xml:space="preserve" text-anchor="start" x="6" y="-781.45" font-family="Times New Roman,serif" font-size="14.00">Leaf function (this calls nothing else)</text>
<polygon fill="#6db33f" stroke="none" points="213,-775.25 213,-797.75 263,-797.75 263,-775.25 213,-775.25"/>
<polygon fill="none" stroke="black" points="213,-775.25 213,-797.75 263,-797.75 263,-775.25 213,-775.25"/>
<polygon fill="none" stroke="black" points="3,-752.75 3,-775.25 213,-775.25 213,-752.75 3,-752.75"/>
<text xml:space="preserve" text-anchor="start" x="72.38" y="-758.95" font-family="Times New Roman,serif" font-size="14.00">Function call</text>
<polygon fill="none" stroke="black" points="213,-752.75 213,-775.25 263,-775.25 263,-752.75 213,-752.75"/>
<text xml:space="preserve" text-anchor="start" x="230.88" y="-758.95" font-family="Times New Roman,serif" font-size="14.00">→</text>
<polygon fill="none" stroke="black" points="2,-751.75 2,-843.75 264,-843.75 264,-751.75 2,-751.75"/>
<polygon fill="none" stroke="black" points="0,-749.75 0,-864.25 266,-864.25 266,-749.75 0,-749.75"/>
</g>
<!-- node_1753baf7 -->
<g id="node2" class="node">
<title>node_1753baf7</title>
<path fill="#6db33f" stroke="black" d="M429,-1050C429,-1050 362,-1050 362,-1050 356,-1050 350,-1044 350,-1038 350,-1038 350,-1026 350,-1026 350,-1020 356,-1014 362,-1014 362,-1014 429,-1014 429,-1014 435,-1014 441,-1020 441,-1026 441,-1026 441,-1038 441,-1038 441,-1044 435,-1050 429,-1050"/>
<text xml:space="preserve" text-anchor="middle" x="395.5" y="-1026.95" font-family="Times New Roman,serif" font-size="14.00">17: __init__()</text>
</g>
<!-- node_e54ae005 -->
<g id="node3" class="node">
<title>node_e54ae005</title>
<path fill="#6db33f" stroke="black" d="M649.75,-1104C649.75,-1104 567.75,-1104 567.75,-1104 561.75,-1104 555.75,-1098 555.75,-1092 555.75,-1092 555.75,-1080 555.75,-1080 555.75,-1074 561.75,-1068 567.75,-1068 567.75,-1068 649.75,-1068 649.75,-1068 655.75,-1068 661.75,-1074 661.75,-1080 661.75,-1080 661.75,-1092 661.75,-1092 661.75,-1098 655.75,-1104 649.75,-1104"/>
<text xml:space="preserve" text-anchor="middle" x="608.75" y="-1080.95" font-family="Times New Roman,serif" font-size="14.00">71: _iter_paths()</text>
</g>
<!-- node_f8a490b6 -->
<g id="node4" class="node">
<title>node_f8a490b6</title>
<path fill="#6db33f" stroke="black" d="M652.38,-1158C652.38,-1158 565.12,-1158 565.12,-1158 559.12,-1158 553.12,-1152 553.12,-1146 553.12,-1146 553.12,-1134 553.12,-1134 553.12,-1128 559.12,-1122 565.12,-1122 565.12,-1122 652.38,-1122 652.38,-1122 658.38,-1122 664.38,-1128 664.38,-1134 664.38,-1134 664.38,-1146 664.38,-1146 664.38,-1152 658.38,-1158 652.38,-1158"/>
<text xml:space="preserve" text-anchor="middle" x="608.75" y="-1134.95" font-family="Times New Roman,serif" font-size="14.00">91: _score_path()</text>
</g>
<!-- node_b0ebc29a -->
<g id="node5" class="node">
<title>node_b0ebc29a</title>
<path fill="#6db33f" stroke="black" d="M477,-1104C477,-1104 314,-1104 314,-1104 308,-1104 302,-1098 302,-1092 302,-1092 302,-1080 302,-1080 302,-1074 308,-1068 314,-1068 314,-1068 477,-1068 477,-1068 483,-1068 489,-1074 489,-1080 489,-1080 489,-1092 489,-1092 489,-1098 483,-1104 477,-1104"/>
<text xml:space="preserve" text-anchor="middle" x="395.5" y="-1080.95" font-family="Times New Roman,serif" font-size="14.00">20: rank_foundational_papers()</text>
</g>
<!-- node_ad4fd576 -->
<g id="node6" class="node">
<title>node_ad4fd576</title>
<path fill="#cccccc" stroke="black" d="M439.5,-1158C439.5,-1158 351.5,-1158 351.5,-1158 345.5,-1158 339.5,-1152 339.5,-1146 339.5,-1146 339.5,-1134 339.5,-1134 339.5,-1128 345.5,-1122 351.5,-1122 351.5,-1122 439.5,-1122 439.5,-1122 445.5,-1122 451.5,-1128 451.5,-1134 451.5,-1134 451.5,-1146 451.5,-1146 451.5,-1152 445.5,-1158 439.5,-1158"/>
<text xml:space="preserve" text-anchor="middle" x="395.5" y="-1134.95" font-family="Times New Roman,serif" font-size="14.00">108: rank_paths()</text>
</g>
<!-- node_ad4fd576&#45;&gt;node_e54ae005 -->
<g id="edge1" class="edge">
<title>node_ad4fd576&#45;&gt;node_e54ae005</title>
<path fill="none" stroke="#d55e00" stroke-width="2" d="M451.98,-1134C479.4,-1134 506.5,-1134 506.5,-1134 506.5,-1134 506.5,-1086 506.5,-1086 506.5,-1086 542.5,-1086 542.5,-1086"/>
<polygon fill="#d55e00" stroke="#d55e00" stroke-width="2" points="542.5,-1089.5 552.5,-1086 542.5,-1082.5 542.5,-1089.5"/>
</g>
<!-- node_ad4fd576&#45;&gt;node_f8a490b6 -->
<g id="edge2" class="edge">
<title>node_ad4fd576&#45;&gt;node_f8a490b6</title>
<path fill="none" stroke="#d55e00" stroke-width="2" d="M451.81,-1146C451.81,-1146 539.84,-1146 539.84,-1146"/>
<polygon fill="#d55e00" stroke="#d55e00" stroke-width="2" points="539.84,-1149.5 549.84,-1146 539.84,-1142.5 539.84,-1149.5"/>
</g>
<!-- node_8fba9a18 -->
<g id="node7" class="node">
<title>node_8fba9a18</title>
<path fill="#6db33f" stroke="black" d="M417,-798C417,-798 374,-798 374,-798 368,-798 362,-792 362,-786 362,-786 362,-774 362,-774 362,-768 368,-762 374,-762 374,-762 417,-762 417,-762 423,-762 429,-768 429,-774 429,-774 429,-786 429,-786 429,-792 423,-798 417,-798"/>
<text xml:space="preserve" text-anchor="middle" x="395.5" y="-774.95" font-family="Times New Roman,serif" font-size="14.00">8: build()</text>
</g>
<!-- node_772865ed -->
<g id="node8" class="node">
<title>node_772865ed</title>
<path fill="#cccccc" stroke="black" d="M680.5,-924C680.5,-924 537,-924 537,-924 531,-924 525,-918 525,-912 525,-912 525,-900 525,-900 525,-894 531,-888 537,-888 537,-888 680.5,-888 680.5,-888 686.5,-888 692.5,-894 692.5,-900 692.5,-900 692.5,-912 692.5,-912 692.5,-918 686.5,-924 680.5,-924"/>
<text xml:space="preserve" text-anchor="middle" x="608.75" y="-900.95" font-family="Times New Roman,serif" font-size="14.00">169: get_abstracts_by_doi()</text>
</g>
<!-- node_cf172151 -->
<g id="node9" class="node">
<title>node_cf172151</title>
<path fill="#6db33f" stroke="black" d="M633.62,-60C633.62,-60 583.88,-60 583.88,-60 577.88,-60 571.88,-54 571.88,-48 571.88,-48 571.88,-36 571.88,-36 571.88,-30 577.88,-24 583.88,-24 583.88,-24 633.62,-24 633.62,-24 639.62,-24 645.62,-30 645.62,-36 645.62,-36 645.62,-48 645.62,-48 645.62,-54 639.62,-60 633.62,-60"/>
<text xml:space="preserve" text-anchor="middle" x="608.75" y="-36.95" font-family="Times New Roman,serif" font-size="14.00">9: merge()</text>
</g>
<!-- node_09cf27ef -->
<g id="node10" class="node">
<title>node_09cf27ef</title>
<path fill="#6db33f" stroke="black" d="M452.62,-672C452.62,-672 338.38,-672 338.38,-672 332.38,-672 326.38,-666 326.38,-660 326.38,-660 326.38,-648 326.38,-648 326.38,-642 332.38,-636 338.38,-636 338.38,-636 452.62,-636 452.62,-636 458.62,-636 464.62,-642 464.62,-648 464.62,-648 464.62,-660 464.62,-660 464.62,-666 458.62,-672 452.62,-672"/>
<text xml:space="preserve" text-anchor="middle" x="395.5" y="-648.95" font-family="Times New Roman,serif" font-size="14.00">13: normalize_query()</text>
</g>
<!-- node_38da800f -->
<g id="node11" class="node">
<title>node_38da800f</title>
<path fill="#6db33f" stroke="black" d="M642.25,-186C642.25,-186 575.25,-186 575.25,-186 569.25,-186 563.25,-180 563.25,-174 563.25,-174 563.25,-162 563.25,-162 563.25,-156 569.25,-150 575.25,-150 575.25,-150 642.25,-150 642.25,-150 648.25,-150 654.25,-156 654.25,-162 654.25,-162 654.25,-174 654.25,-174 654.25,-180 648.25,-186 642.25,-186"/>
<text xml:space="preserve" text-anchor="middle" x="608.75" y="-162.95" font-family="Times New Roman,serif" font-size="14.00">31: __init__()</text>
</g>
<!-- node_fa36652e -->
<g id="node12" class="node">
<title>node_fa36652e</title>
<path fill="#cccccc" stroke="black" d="M457.5,-924C457.5,-924 333.5,-924 333.5,-924 327.5,-924 321.5,-918 321.5,-912 321.5,-912 321.5,-900 321.5,-900 321.5,-894 327.5,-888 333.5,-888 333.5,-888 457.5,-888 457.5,-888 463.5,-888 469.5,-894 469.5,-900 469.5,-900 469.5,-912 469.5,-912 469.5,-918 463.5,-924 457.5,-924"/>
<text xml:space="preserve" text-anchor="middle" x="395.5" y="-900.95" font-family="Times New Roman,serif" font-size="14.00">34: _backfill_abstracts()</text>
</g>
<!-- node_fa36652e&#45;&gt;node_772865ed -->
<g id="edge3" class="edge">
<title>node_fa36652e&#45;&gt;node_772865ed</title>
<path fill="none" stroke="#d55e00" stroke-width="2" d="M469.79,-906C469.79,-906 511.49,-906 511.49,-906"/>
<polygon fill="#d55e00" stroke="#d55e00" stroke-width="2" points="511.49,-909.5 521.49,-906 511.49,-902.5 511.49,-909.5"/>
</g>
<!-- node_a8da06bd -->
<g id="node13" class="node">
<title>node_a8da06bd</title>
<path fill="#cccccc" stroke="black" d="M153,-924C153,-924 113,-924 113,-924 107,-924 101,-918 101,-912 101,-912 101,-900 101,-900 101,-894 107,-888 113,-888 113,-888 153,-888 153,-888 159,-888 165,-894 165,-900 165,-900 165,-912 165,-912 165,-918 159,-924 153,-924"/>
<text xml:space="preserve" text-anchor="middle" x="133" y="-900.95" font-family="Times New Roman,serif" font-size="14.00">67: run()</text>
</g>
<!-- node_a8da06bd&#45;&gt;node_1753baf7 -->
<g id="edge4" class="edge">
<title>node_a8da06bd&#45;&gt;node_1753baf7</title>
<path fill="none" stroke="#0072b2" stroke-width="2" d="M143.5,-924.32C143.5,-959.27 143.5,-1032 143.5,-1032 143.5,-1032 336.55,-1032 336.55,-1032"/>
<polygon fill="#0072b2" stroke="#0072b2" stroke-width="2" points="336.55,-1035.5 346.55,-1032 336.55,-1028.5 336.55,-1035.5"/>
</g>
<!-- node_a8da06bd&#45;&gt;node_b0ebc29a -->
<g id="edge5" class="edge">
<title>node_a8da06bd&#45;&gt;node_b0ebc29a</title>
<path fill="none" stroke="#0072b2" stroke-width="2" d="M165.14,-920.4C218,-920.4 317.5,-920.4 317.5,-920.4 317.5,-920.4 317.5,-1054.62 317.5,-1054.62"/>
<polygon fill="#0072b2" stroke="#0072b2" stroke-width="2" points="314,-1054.62 317.5,-1064.62 321,-1054.62 314,-1054.62"/>
</g>
<!-- node_a8da06bd&#45;&gt;node_ad4fd576 -->
<g id="edge6" class="edge">
<title>node_a8da06bd&#45;&gt;node_ad4fd576</title>
<path fill="none" stroke="#0072b2" stroke-width="2" d="M122.5,-924.36C122.5,-979.52 122.5,-1140 122.5,-1140 122.5,-1140 326.24,-1140 326.24,-1140"/>
<polygon fill="#0072b2" stroke="#0072b2" stroke-width="2" points="326.24,-1143.5 336.24,-1140 326.24,-1136.5 326.24,-1143.5"/>
</g>
<!-- node_a8da06bd&#45;&gt;node_8fba9a18 -->
<g id="edge7" class="edge">
<title>node_a8da06bd&#45;&gt;node_8fba9a18</title>
<path fill="none" stroke="#0072b2" stroke-width="2" d="M165.49,-913.2C218.92,-913.2 319.5,-913.2 319.5,-913.2 319.5,-913.2 319.5,-780 319.5,-780 319.5,-780 348.47,-780 348.47,-780"/>
<polygon fill="#0072b2" stroke="#0072b2" stroke-width="2" points="348.47,-783.5 358.47,-780 348.47,-776.5 348.47,-783.5"/>
</g>
<!-- node_a8da06bd&#45;&gt;node_09cf27ef -->
<g id="edge8" class="edge">
<title>node_a8da06bd&#45;&gt;node_09cf27ef</title>
<path fill="none" stroke="#0072b2" stroke-width="2" d="M165.45,-909.6C217.65,-909.6 314.5,-909.6 314.5,-909.6 314.5,-909.6 314.5,-654 314.5,-654 314.5,-654 315.66,-654 315.66,-654"/>
<polygon fill="#0072b2" stroke="#0072b2" stroke-width="2" points="313.08,-657.5 323.08,-654 313.08,-650.5 313.08,-657.5"/>
</g>
<!-- node_a8da06bd&#45;&gt;node_fa36652e -->
<g id="edge9" class="edge">
<title>node_a8da06bd&#45;&gt;node_fa36652e</title>
<path fill="none" stroke="#0072b2" stroke-width="2" d="M165.45,-916.8C165.45,-916.8 308.06,-916.8 308.06,-916.8"/>
<polygon fill="#0072b2" stroke="#0072b2" stroke-width="2" points="308.06,-920.3 318.06,-916.8 308.06,-913.3 308.06,-920.3"/>
</g>
<!-- node_64db4312 -->
<g id="node14" class="node">
<title>node_64db4312</title>
<path fill="#6db33f" stroke="black" d="M456.75,-546C456.75,-546 334.25,-546 334.25,-546 328.25,-546 322.25,-540 322.25,-534 322.25,-534 322.25,-522 322.25,-522 322.25,-516 328.25,-510 334.25,-510 334.25,-510 456.75,-510 456.75,-510 462.75,-510 468.75,-516 468.75,-522 468.75,-522 468.75,-534 468.75,-534 468.75,-540 462.75,-546 456.75,-546"/>
<text xml:space="preserve" text-anchor="middle" x="395.5" y="-522.95" font-family="Times New Roman,serif" font-size="14.00">20: extract_candidates()</text>
</g>
<!-- node_a8da06bd&#45;&gt;node_64db4312 -->
<g id="edge10" class="edge">
<title>node_a8da06bd&#45;&gt;node_64db4312</title>
<path fill="none" stroke="#0072b2" stroke-width="2" d="M165.09,-906C216.72,-906 312.5,-906 312.5,-906 312.5,-906 312.5,-528 312.5,-528 312.5,-528 313.45,-528 313.45,-528"/>
<polygon fill="#0072b2" stroke="#0072b2" stroke-width="2" points="308.99,-531.5 318.99,-528 308.99,-524.5 308.99,-531.5"/>
</g>
<!-- node_6c0126b6 -->
<g id="node15" class="node">
<title>node_6c0126b6</title>
<path fill="#cccccc" stroke="black" d="M438.75,-186C438.75,-186 352.25,-186 352.25,-186 346.25,-186 340.25,-180 340.25,-174 340.25,-174 340.25,-162 340.25,-162 340.25,-156 346.25,-150 352.25,-150 352.25,-150 438.75,-150 438.75,-150 444.75,-150 450.75,-156 450.75,-162 450.75,-162 450.75,-174 450.75,-174 450.75,-180 444.75,-186 438.75,-186"/>
<text xml:space="preserve" text-anchor="middle" x="395.5" y="-162.95" font-family="Times New Roman,serif" font-size="14.00">28: resolve_full()</text>
</g>
<!-- node_a8da06bd&#45;&gt;node_6c0126b6 -->
<g id="edge11" class="edge">
<title>node_a8da06bd&#45;&gt;node_6c0126b6</title>
<path fill="none" stroke="#0072b2" stroke-width="2" d="M165.23,-895.2C215.4,-895.2 306.5,-895.2 306.5,-895.2 306.5,-895.2 306.5,-168 306.5,-168 306.5,-168 326.87,-168 326.87,-168"/>
<polygon fill="#0072b2" stroke="#0072b2" stroke-width="2" points="326.87,-171.5 336.87,-168 326.87,-164.5 326.87,-171.5"/>
</g>
<!-- node_fe3c31bf -->
<g id="node16" class="node">
<title>node_fe3c31bf</title>
<path fill="#cccccc" stroke="black" d="M429,-339C429,-339 362,-339 362,-339 356,-339 350,-333 350,-327 350,-327 350,-315 350,-315 350,-309 356,-303 362,-303 362,-303 429,-303 429,-303 435,-303 441,-309 441,-315 441,-315 441,-327 441,-327 441,-333 435,-339 429,-339"/>
<text xml:space="preserve" text-anchor="middle" x="395.5" y="-315.95" font-family="Times New Roman,serif" font-size="14.00">39: __init__()</text>
</g>
<!-- node_a8da06bd&#45;&gt;node_fe3c31bf -->
<g id="edge12" class="edge">
<title>node_a8da06bd&#45;&gt;node_fe3c31bf</title>
<path fill="none" stroke="#0072b2" stroke-width="2" d="M165.19,-898.8C215.85,-898.8 308.5,-898.8 308.5,-898.8 308.5,-898.8 308.5,-321 308.5,-321 308.5,-321 336.68,-321 336.68,-321"/>
<polygon fill="#0072b2" stroke="#0072b2" stroke-width="2" points="336.68,-324.5 346.68,-321 336.68,-317.5 336.68,-324.5"/>
</g>
<!-- node_2c915036 -->
<g id="node20" class="node">
<title>node_2c915036</title>
<path fill="#cccccc" stroke="black" d="M431.25,-393C431.25,-393 359.75,-393 359.75,-393 353.75,-393 347.75,-387 347.75,-381 347.75,-381 347.75,-369 347.75,-369 347.75,-363 353.75,-357 359.75,-357 359.75,-357 431.25,-357 431.25,-357 437.25,-357 443.25,-363 443.25,-369 443.25,-369 443.25,-381 443.25,-381 443.25,-387 437.25,-393 431.25,-393"/>
<text xml:space="preserve" text-anchor="middle" x="395.5" y="-369.95" font-family="Times New Roman,serif" font-size="14.00">119: traverse()</text>
</g>
<!-- node_a8da06bd&#45;&gt;node_2c915036 -->
<g id="edge13" class="edge">
<title>node_a8da06bd&#45;&gt;node_2c915036</title>
<path fill="none" stroke="#0072b2" stroke-width="2" d="M165.14,-902.4C216.29,-902.4 310.5,-902.4 310.5,-902.4 310.5,-902.4 310.5,-375 310.5,-375 310.5,-375 334.51,-375 334.51,-375"/>
<polygon fill="#0072b2" stroke="#0072b2" stroke-width="2" points="334.51,-378.5 344.51,-375 334.51,-371.5 334.51,-378.5"/>
</g>
<!-- node_17ac5959 -->
<g id="node21" class="node">
<title>node_17ac5959</title>
<path fill="#6db33f" stroke="black" d="M454.88,-60C454.88,-60 336.12,-60 336.12,-60 330.12,-60 324.12,-54 324.12,-48 324.12,-48 324.12,-36 324.12,-36 324.12,-30 330.12,-24 336.12,-24 336.12,-24 454.88,-24 454.88,-24 460.88,-24 466.88,-30 466.88,-36 466.88,-36 466.88,-48 466.88,-48 466.88,-54 460.88,-60 454.88,-60"/>
<text xml:space="preserve" text-anchor="middle" x="395.5" y="-36.95" font-family="Times New Roman,serif" font-size="14.00">16: calculate_weights()</text>
</g>
<!-- node_a8da06bd&#45;&gt;node_17ac5959 -->
<g id="edge14" class="edge">
<title>node_a8da06bd&#45;&gt;node_17ac5959</title>
<path fill="none" stroke="#0072b2" stroke-width="2" d="M165.26,-891.6C214.94,-891.6 304.5,-891.6 304.5,-891.6 304.5,-891.6 304.5,-42 304.5,-42 304.5,-42 310.77,-42 310.77,-42"/>
<polygon fill="#0072b2" stroke="#0072b2" stroke-width="2" points="310.77,-45.5 320.77,-42 310.77,-38.5 310.77,-45.5"/>
</g>
<!-- node_6c0126b6&#45;&gt;node_cf172151 -->
<g id="edge15" class="edge">
<title>node_6c0126b6&#45;&gt;node_cf172151</title>
<path fill="none" stroke="#d55e00" stroke-width="2" d="M451.06,-162C466.68,-162 479.5,-162 479.5,-162 479.5,-162 479.5,-42 479.5,-42 479.5,-42 558.69,-42 558.69,-42"/>
<polygon fill="#d55e00" stroke="#d55e00" stroke-width="2" points="558.69,-45.5 568.69,-42 558.69,-38.5 558.69,-45.5"/>
</g>
<!-- node_fe3c31bf&#45;&gt;node_38da800f -->
<g id="edge16" class="edge">
<title>node_fe3c31bf&#45;&gt;node_38da800f</title>
<path fill="none" stroke="#cc79a7" stroke-width="2" d="M441.42,-306C450.09,-306 456.5,-306 456.5,-306 456.5,-306 456.5,-174 456.5,-174 456.5,-174 550.04,-174 550.04,-174"/>
<polygon fill="#cc79a7" stroke="#cc79a7" stroke-width="2" points="550.04,-177.5 560.04,-174 550.04,-170.5 550.04,-177.5"/>
</g>
<!-- node_f2893b81 -->
<g id="node17" class="node">
<title>node_f2893b81</title>
<path fill="#6db33f" stroke="black" d="M669.25,-312C669.25,-312 548.25,-312 548.25,-312 542.25,-312 536.25,-306 536.25,-300 536.25,-300 536.25,-288 536.25,-288 536.25,-282 542.25,-276 548.25,-276 548.25,-276 669.25,-276 669.25,-276 675.25,-276 681.25,-282 681.25,-288 681.25,-288 681.25,-300 681.25,-300 681.25,-306 675.25,-312 669.25,-312"/>
<text xml:space="preserve" text-anchor="middle" x="608.75" y="-288.95" font-family="Times New Roman,serif" font-size="14.00">168: _allocate_budget()</text>
</g>
<!-- node_f39e15aa -->
<g id="node18" class="node">
<title>node_f39e15aa</title>
<path fill="#cccccc" stroke="black" d="M662.5,-366C662.5,-366 555,-366 555,-366 549,-366 543,-360 543,-354 543,-354 543,-342 543,-342 543,-336 549,-330 555,-330 555,-330 662.5,-330 662.5,-330 668.5,-330 674.5,-336 674.5,-342 674.5,-342 674.5,-354 674.5,-354 674.5,-360 668.5,-366 662.5,-366"/>
<text xml:space="preserve" text-anchor="middle" x="608.75" y="-342.95" font-family="Times New Roman,serif" font-size="14.00">179: _expand_level()</text>
</g>
<!-- node_0aa22044 -->
<g id="node19" class="node">
<title>node_0aa22044</title>
<path fill="#cccccc" stroke="black" d="M643.38,-420C643.38,-420 574.12,-420 574.12,-420 568.12,-420 562.12,-414 562.12,-408 562.12,-408 562.12,-396 562.12,-396 562.12,-390 568.12,-384 574.12,-384 574.12,-384 643.38,-384 643.38,-384 649.38,-384 655.38,-390 655.38,-396 655.38,-396 655.38,-408 655.38,-408 655.38,-414 649.38,-420 643.38,-420"/>
<text xml:space="preserve" text-anchor="middle" x="608.75" y="-396.95" font-family="Times New Roman,serif" font-size="14.00">95: _register()</text>
</g>
<!-- node_2c915036&#45;&gt;node_f2893b81 -->
<g id="edge17" class="edge">
<title>node_2c915036&#45;&gt;node_f2893b81</title>
<path fill="none" stroke="#d55e00" stroke-width="2" d="M443.47,-360C453.7,-360 461.5,-360 461.5,-360 461.5,-360 461.5,-309 461.5,-309 461.5,-309 522.96,-309 522.96,-309"/>
<polygon fill="#d55e00" stroke="#d55e00" stroke-width="2" points="522.96,-312.5 532.96,-309 522.96,-305.5 522.96,-312.5"/>
</g>
<!-- node_2c915036&#45;&gt;node_f39e15aa -->
<g id="edge18" class="edge">
<title>node_2c915036&#45;&gt;node_f39e15aa</title>
<path fill="none" stroke="#d55e00" stroke-width="2" d="M443.62,-363C443.62,-363 529.59,-363 529.59,-363"/>
<polygon fill="#d55e00" stroke="#d55e00" stroke-width="2" points="529.59,-366.5 539.59,-363 529.59,-359.5 529.59,-366.5"/>
</g>
<!-- node_2c915036&#45;&gt;node_0aa22044 -->
<g id="edge19" class="edge">
<title>node_2c915036&#45;&gt;node_0aa22044</title>
<path fill="none" stroke="#d55e00" stroke-width="2" d="M443.62,-388.5C443.62,-388.5 548.87,-388.5 548.87,-388.5"/>
<polygon fill="#d55e00" stroke="#d55e00" stroke-width="2" points="548.87,-392 558.87,-388.5 548.87,-385 548.87,-392"/>
</g>
</g>
</svg>
