<?xml version="1.0" encoding="UTF-8" standalone="no"?>
<!DOCTYPE svg PUBLIC "-//W3C//DTD SVG 1.1//EN"
 "http://www.w3.org/Graphics/SVG/1.1/DTD/svg11.dtd">
<!-- Generated by graphviz version 13.1.0 (20250701.0955)
 -->
<!-- Title: classes_KN Pages: 1 -->
<svg width="827pt" height="503pt"
 viewBox="0.00 0.00 827.00 503.00" xmlns="http://www.w3.org/2000/svg" xmlns:xlink="http://www.w3.org/1999/xlink">
<g id="graph0" class="graph" transform="scale(1 1) rotate(0) translate(4 499)">
<title>classes_KN</title>
<!-- citegraph.models.citation.CitationEdge -->
<g id="node1" class="node">
<title>citegraph.models.citation.CitationEdge</title>
<polygon fill="none" stroke="black" points="732,-402.5 732,-438.5 819.25,-438.5 819.25,-402.5 732,-402.5"/>
<text xml:space="preserve" text-anchor="start" x="740" y="-415.7" font-family="Times New Roman,serif" font-size="14.00">CitationEdge</text>
</g>
<!-- citegraph.citations.retriever.CitationRetriever -->
<g id="node2" class="node">
<title>citegraph.citations.retriever.CitationRetriever</title>
<polygon fill="none" stroke="black" points="261,-356.5 261,-392.5 370.75,-392.5 370.75,-356.5 261,-356.5"/>
<text xml:space="preserve" text-anchor="start" x="269" y="-369.7" font-family="Times New Roman,serif" font-size="14.00">CitationRetriever</text>
</g>
<!-- citegraph.citations.traversal.CitationTraversal -->
<g id="node3" class="node">
<title>citegraph.citations.traversal.CitationTraversal</title>
<polygon fill="none" stroke="black" points="533.62,-379.5 533.62,-415.5 644.12,-415.5 644.12,-379.5 533.62,-379.5"/>
<text xml:space="preserve" text-anchor="start" x="541.62" y="-392.7" font-family="Times New Roman,serif" font-size="14.00">CitationTraversal</text>
</g>
<!-- citegraph.citations.retriever.CitationRetriever&#45;&gt;citegraph.citations.traversal.CitationTraversal -->
<g id="edge16" class="edge">
<title>citegraph.citations.retriever.CitationRetriever&#45;&gt;citegraph.citations.traversal.CitationTraversal</title>
<path fill="none" stroke="black" d="M371.22,-380.4C381.84,-381.48 392.89,-382.57 403.25,-383.5 442,-386.99 485.38,-390.31 520.35,-392.84"/>
<polygon fill="none" stroke="black" points="520.44,-392.84 526.71,-389.28 532.41,-393.7 526.14,-397.26 520.44,-392.84"/>
<text xml:space="preserve" text-anchor="middle" x="453.12" y="-394.46" font-family="Times New Roman,serif" font-size="14.00" fill="green">retriever</text>
</g>
<!-- citegraph.pipeline.orchestrator.PipelineOrchestrator -->
<g id="node13" class="node">
<title>citegraph.pipeline.orchestrator.PipelineOrchestrator</title>
<polygon fill="none" stroke="black" points="525,-165.5 525,-201.5 652.75,-201.5 652.75,-165.5 525,-165.5"/>
<text xml:space="preserve" text-anchor="start" x="533" y="-178.7" font-family="Times New Roman,serif" font-size="14.00">PipelineOrchestrator</text>
</g>
<!-- citegraph.citations.retriever.CitationRetriever&#45;&gt;citegraph.pipeline.orchestrator.PipelineOrchestrator -->
<g id="edge5" class="edge">
<title>citegraph.citations.retriever.CitationRetriever&#45;&gt;citegraph.pipeline.orchestrator.PipelineOrchestrator</title>
<path fill="none" stroke="black" d="M371.22,-368.5C425.24,-362.43 500.46,-353.64 503,-351.5 528.91,-329.66 510.61,-309.18 525,-278.5 536.06,-254.92 552.38,-230.47 565.62,-212.27"/>
<polygon fill="black" stroke="black" points="565.69,-212.17 566.06,-204.97 572.85,-202.54 572.48,-209.74 565.69,-212.17"/>
<text xml:space="preserve" text-anchor="middle" x="453.12" y="-367.46" font-family="Times New Roman,serif" font-size="14.00" fill="green">citation_retriever</text>
</g>
<!-- citegraph.citations.traversal.CitationTraversal&#45;&gt;citegraph.models.citation.CitationEdge -->
<g id="edge2" class="edge">
<title>citegraph.citations.traversal.CitationTraversal&#45;&gt;citegraph.models.citation.CitationEdge</title>
<path fill="none" stroke="black" d="M644.56,-404.31C668.53,-407.29 696.59,-410.79 720.5,-413.76"/>
<polygon fill="black" stroke="black" points="730.31,-414.98 719.83,-418.21 726.56,-414.52 720.39,-413.75 720.39,-413.75 720.39,-413.75 726.56,-414.52 720.94,-409.28 730.31,-414.98"/>
<text xml:space="preserve" text-anchor="middle" x="692.38" y="-415.6" font-family="Times New Roman,serif" font-size="14.00" fill="green">edges</text>
</g>
<!-- citegraph.models.paper.Paper -->
<g id="node11" class="node">
<title>citegraph.models.paper.Paper</title>
<polygon fill="none" stroke="black" points="748.62,-355.5 748.62,-391.5 802.62,-391.5 802.62,-355.5 748.62,-355.5"/>
<text xml:space="preserve" text-anchor="start" x="760.25" y="-368.7" font-family="Times New Roman,serif" font-size="14.00">Paper</text>
</g>
<!-- citegraph.citations.traversal.CitationTraversal&#45;&gt;citegraph.models.paper.Paper -->
<g id="edge3" class="edge">
<title>citegraph.citations.traversal.CitationTraversal&#45;&gt;citegraph.models.paper.Paper</title>
<path fill="none" stroke="black" d="M644.56,-390.4C674.54,-386.5 710.91,-381.78 737.56,-378.32"/>
<polygon fill="black" stroke="black" points="747.13,-377.07 737.79,-382.82 743.38,-377.56 737.21,-378.36 737.21,-378.36 737.21,-378.36 743.38,-377.56 736.63,-373.9 747.13,-377.07"/>
<text xml:space="preserve" text-anchor="middle" x="692.38" y="-389.42" font-family="Times New Roman,serif" font-size="14.00" fill="green">papers</text>
</g>
<!-- citegraph.providers.europe_pmc.EuropePMCProvider -->
<g id="node4" class="node">
<title>citegraph.providers.europe_pmc.EuropePMCProvider</title>
<polygon fill="none" stroke="black" points="250.5,-235.5 250.5,-271.5 381.25,-271.5 381.25,-235.5 250.5,-235.5"/>
<text xml:space="preserve" text-anchor="start" x="258.5" y="-248.7" font-family="Times New Roman,serif" font-size="14.00">EuropePMCProvider</text>
</g>
<!-- citegraph.providers.europe_pmc.EuropePMCProvider&#45;&gt;citegraph.pipeline.orchestrator.PipelineOrchestrator -->
<g id="edge14" class="edge">
<title>citegraph.providers.europe_pmc.EuropePMCProvider&#45;&gt;citegraph.pipeline.orchestrator.PipelineOrchestrator</title>
<path fill="none" stroke="black" d="M381.34,-244.13C417.51,-238.1 463.22,-229.2 503,-217.5 513.4,-214.44 524.29,-210.6 534.67,-206.6"/>
<polygon fill="black" stroke="black" points="534.57,-206.64 538.67,-200.71 545.72,-202.21 541.62,-208.14 534.57,-206.64"/>
<text xml:space="preserve" text-anchor="middle" x="453.12" y="-242.76" font-family="Times New Roman,serif" font-size="14.00" fill="green">europe_pmc</text>
</g>
<!-- citegraph.graph.builder.GraphBuilder -->
<g id="node5" class="node">
<title>citegraph.graph.builder.GraphBuilder</title>
<polygon fill="none" stroke="black" points="270.75,-188.5 270.75,-224.5 361,-224.5 361,-188.5 270.75,-188.5"/>
<text xml:space="preserve" text-anchor="start" x="278.75" y="-201.7" font-family="Times New Roman,serif" font-size="14.00">GraphBuilder</text>
</g>
<!-- citegraph.graph.builder.GraphBuilder&#45;&gt;citegraph.pipeline.orchestrator.PipelineOrchestrator -->
<g id="edge6" class="edge">
<title>citegraph.graph.builder.GraphBuilder&#45;&gt;citegraph.pipeline.orchestrator.PipelineOrchestrator</title>
<path fill="none" stroke="black" d="M361.32,-202.73C402.04,-199.27 463.16,-194.08 511.67,-189.97"/>
<polygon fill="black" stroke="black" points="511.81,-189.96 517.45,-185.46 523.77,-188.94 518.13,-193.43 511.81,-189.96"/>
<text xml:space="preserve" text-anchor="middle" x="453.12" y="-202.26" font-family="Times New Roman,serif" font-size="14.00" fill="green">graph_builder</text>
</g>
<!-- citegraph.input.normalizer.InputNormalizer -->
<g id="node6" class="node">
<title>citegraph.input.normalizer.InputNormalizer</title>
<polygon fill="none" stroke="black" points="262.5,-141.5 262.5,-177.5 369.25,-177.5 369.25,-141.5 262.5,-141.5"/>
<text xml:space="preserve" text-anchor="start" x="270.5" y="-154.7" font-family="Times New Roman,serif" font-size="14.00">InputNormalizer</text>
</g>
<!-- citegraph.input.normalizer.InputNormalizer&#45;&gt;citegraph.pipeline.orchestrator.PipelineOrchestrator -->
<g id="edge8" class="edge">
<title>citegraph.input.normalizer.InputNormalizer&#45;&gt;citegraph.pipeline.orchestrator.PipelineOrchestrator</title>
<path fill="none" stroke="black" d="M369.5,-162.08C406.82,-164.15 458.05,-167.45 503,-172 506,-172.3 509.05,-172.63 512.13,-172.98"/>
<polygon fill="black" stroke="black" points="512.08,-172.97 518.51,-169.7 524,-174.38 517.57,-177.65 512.08,-172.97"/>
<text xml:space="preserve" text-anchor="middle" x="453.12" y="-175.2" font-family="Times New Roman,serif" font-size="14.00" fill="green">normalizer</text>
</g>
<!-- citegraph.metadata.merger.MetadataMerger -->
<g id="node7" class="node">
<title>citegraph.metadata.merger.MetadataMerger</title>
<polygon fill="none" stroke="black" points="16.88,-306.5 16.88,-342.5 124.38,-342.5 124.38,-306.5 16.88,-306.5"/>
<text xml:space="preserve" text-anchor="start" x="24.88" y="-319.7" font-family="Times New Roman,serif" font-size="14.00">MetadataMerger</text>
</g>
<!-- citegraph.metadata.resolver.MetadataResolver -->
<g id="node9" class="node">
<title>citegraph.metadata.resolver.MetadataResolver</title>
<polygon fill="none" stroke="black" points="258.38,-283.5 258.38,-319.5 373.38,-319.5 373.38,-283.5 258.38,-283.5"/>
<text xml:space="preserve" text-anchor="start" x="266.38" y="-296.7" font-family="Times New Roman,serif" font-size="14.00">MetadataResolver</text>
</g>
<!-- citegraph.metadata.merger.MetadataMerger&#45;&gt;citegraph.metadata.resolver.MetadataResolver -->
<g id="edge10" class="edge">
<title>citegraph.metadata.merger.MetadataMerger&#45;&gt;citegraph.metadata.resolver.MetadataResolver</title>
<path fill="none" stroke="black" d="M124.71,-319.48C160.05,-316.14 206.85,-311.71 245.18,-308.09"/>
<polygon fill="black" stroke="black" points="245.25,-308.08 250.84,-303.54 257.19,-306.95 251.6,-311.5 245.25,-308.08"/>
<text xml:space="preserve" text-anchor="middle" x="195.88" y="-318.94" font-family="Times New Roman,serif" font-size="14.00" fill="green">merger</text>
</g>
<!-- citegraph.providers.base.MetadataProvider -->
<g id="node8" class="node">
<title>citegraph.providers.base.MetadataProvider</title>
<polygon fill="none" stroke="black" points="532.12,-283.5 532.12,-319.5 645.62,-319.5 645.62,-283.5 532.12,-283.5"/>
<text xml:space="preserve" text-anchor="start" x="540.12" y="-296.7" font-family="Times New Roman,serif" font-size="14.00">MetadataProvider</text>
</g>
<!-- citegraph.metadata.resolver.MetadataResolver&#45;&gt;citegraph.citations.traversal.CitationTraversal -->
<g id="edge17" class="edge">
<title>citegraph.metadata.resolver.MetadataResolver&#45;&gt;citegraph.citations.traversal.CitationTraversal</title>
<path fill="none" stroke="black" d="M373.51,-313.57C383.41,-315.6 393.62,-317.65 403.25,-319.5 447.45,-327.98 461.48,-319.62 503,-337 522.8,-345.29 542.48,-358.89 557.89,-371.09"/>
<polygon fill="none" stroke="black" points="557.85,-371.06 565.03,-371.77 567.13,-378.67 559.96,-377.96 557.85,-371.06"/>
<text xml:space="preserve" text-anchor="middle" x="453.12" y="-340.2" font-family="Times New Roman,serif" font-size="14.00" fill="green">resolver</text>
</g>
<!-- citegraph.metadata.resolver.MetadataResolver&#45;&gt;citegraph.providers.base.MetadataProvider -->
<g id="edge4" class="edge">
<title>citegraph.metadata.resolver.MetadataResolver&#45;&gt;citegraph.providers.base.MetadataProvider</title>
<path fill="none" stroke="black" d="M373.69,-301.5C416.61,-301.5 475.66,-301.5 520.88,-301.5"/>
<polygon fill="black" stroke="black" points="530.85,-301.5 520.85,-306 527.07,-301.5 520.85,-301.5 520.85,-301.5 520.85,-301.5 527.07,-301.5 520.85,-297 530.85,-301.5"/>
<text xml:space="preserve" text-anchor="middle" x="453.12" y="-304.7" font-family="Times New Roman,serif" font-size="14.00" fill="green">providers</text>
</g>
<!-- citegraph.metadata.resolver.MetadataResolver&#45;&gt;citegraph.pipeline.orchestrator.PipelineOrchestrator -->
<g id="edge11" class="edge">
<title>citegraph.metadata.resolver.MetadataResolver&#45;&gt;citegraph.pipeline.orchestrator.PipelineOrchestrator</title>
<path fill="none" stroke="black" d="M373.63,-288.85C424,-277.4 491.37,-261.45 503,-255.5 525.08,-244.2 546.36,-226.13 562.08,-210.92"/>
<polygon fill="black" stroke="black" points="561.99,-211.02 563.41,-203.95 570.48,-202.54 569.06,-209.61 561.99,-211.02"/>
<text xml:space="preserve" text-anchor="middle" x="453.12" y="-284.1" font-family="Times New Roman,serif" font-size="14.00" fill="green">metadata_resolver</text>
</g>
<!-- citegraph.providers.openalex.OpenAlexProvider -->
<g id="node10" class="node">
<title>citegraph.providers.openalex.OpenAlexProvider</title>
<polygon fill="none" stroke="black" points="256.88,-411.5 256.88,-447.5 374.88,-447.5 374.88,-411.5 256.88,-411.5"/>
<text xml:space="preserve" text-anchor="start" x="264.88" y="-424.7" font-family="Times New Roman,serif" font-size="14.00">OpenAlexProvider</text>
</g>
<!-- citegraph.providers.openalex.OpenAlexProvider&#45;&gt;citegraph.citations.traversal.CitationTraversal -->
<g id="edge15" class="edge">
<title>citegraph.providers.openalex.OpenAlexProvider&#45;&gt;citegraph.citations.traversal.CitationTraversal</title>
<path fill="none" stroke="black" d="M375.2,-423.74C411.91,-419.99 460.27,-414.82 503,-409.5 508.87,-408.77 514.97,-407.98 521.08,-407.16"/>
<polygon fill="black" stroke="black" points="520.79,-407.2 526.2,-402.42 532.68,-405.57 527.28,-410.35 520.79,-407.2"/>
<text xml:space="preserve" text-anchor="middle" x="453.12" y="-423.67" font-family="Times New Roman,serif" font-size="14.00" fill="green">openalex</text>
</g>
<!-- citegraph.models.paper.PaperQuery -->
<g id="node12" class="node">
<title>citegraph.models.paper.PaperQuery</title>
<polygon fill="none" stroke="black" points="275.62,-458.5 275.62,-494.5 356.12,-494.5 356.12,-458.5 275.62,-458.5"/>
<text xml:space="preserve" text-anchor="start" x="283.62" y="-471.7" font-family="Times New Roman,serif" font-size="14.00">PaperQuery</text>
</g>
<!-- citegraph.nlp.population_extractor.PopulationExtractor -->
<g id="node14" class="node">
<title>citegraph.nlp.population_extractor.PopulationExtractor</title>
<polygon fill="none" stroke="black" points="253.5,-94.5 253.5,-130.5 378.25,-130.5 378.25,-94.5 253.5,-94.5"/>
<text xml:space="preserve" text-anchor="start" x="261.5" y="-107.7" font-family="Times New Roman,serif" font-size="14.00">PopulationExtractor</text>
</g>
<!-- citegraph.nlp.population_extractor.PopulationExtractor&#45;&gt;citegraph.pipeline.orchestrator.PipelineOrchestrator -->
<g id="edge12" class="edge">
<title>citegraph.nlp.population_extractor.PopulationExtractor&#45;&gt;citegraph.pipeline.orchestrator.PipelineOrchestrator</title>
<path fill="none" stroke="black" d="M378.52,-119.84C415.19,-125.13 462.34,-133.55 503,-146 515.12,-149.71 527.8,-154.68 539.56,-159.79"/>
<polygon fill="black" stroke="black" points="539.65,-159.83 546.76,-158.64 550.6,-164.74 543.49,-165.93 539.65,-159.83"/>
<text xml:space="preserve" text-anchor="middle" x="453.12" y="-149.2" font-family="Times New Roman,serif" font-size="14.00" fill="green">pop_extractor</text>
</g>
<!-- citegraph.nlp.population_resolver.PopulationResolver -->
<g id="node15" class="node">
<title>citegraph.nlp.population_resolver.PopulationResolver</title>
<polygon fill="none" stroke="black" points="254.62,-47.5 254.62,-83.5 377.12,-83.5 377.12,-47.5 254.62,-47.5"/>
<text xml:space="preserve" text-anchor="start" x="262.62" y="-60.7" font-family="Times New Roman,serif" font-size="14.00">PopulationResolver</text>
</g>
<!-- citegraph.nlp.population_resolver.PopulationResolver&#45;&gt;citegraph.pipeline.orchestrator.PipelineOrchestrator -->
<g id="edge13" class="edge">
<title>citegraph.nlp.population_resolver.PopulationResolver&#45;&gt;citegraph.pipeline.orchestrator.PipelineOrchestrator</title>
<path fill="none" stroke="black" d="M377.43,-70.58C415.22,-75.66 463.93,-85.8 503,-106 526.71,-118.26 548.81,-138.86 564.51,-155.74"/>
<polygon fill="black" stroke="black" points="564.36,-155.57 571.34,-157.36 572.38,-164.49 565.4,-162.71 564.36,-155.57"/>
<text xml:space="preserve" text-anchor="middle" x="453.12" y="-109.2" font-family="Times New Roman,serif" font-size="14.00" fill="green">pop_resolver</text>
</g>
<!-- citegraph.api.routes.RunRequest -->
<g id="node16" class="node">
<title>citegraph.api.routes.RunRequest</title>
<polygon fill="none" stroke="black" points="29.62,-458.5 29.62,-494.5 111.62,-494.5 111.62,-458.5 29.62,-458.5"/>
<text xml:space="preserve" text-anchor="start" x="37.62" y="-471.7" font-family="Times New Roman,serif" font-size="14.00">RunRequest</text>
</g>
<!-- citegraph.api.routes.RunRequest&#45;&gt;citegraph.models.paper.PaperQuery -->
<g id="edge1" class="edge">
<title>citegraph.api.routes.RunRequest&#45;&gt;citegraph.models.paper.PaperQuery</title>
<path fill="none" stroke="black" d="M112.07,-476.5C153.7,-476.5 218.69,-476.5 263.84,-476.5"/>
<polygon fill="none" stroke="black" points="263.63,-480 273.63,-476.5 263.63,-473 263.63,-480"/>
</g>
<!-- citegraph.input.url_resolver.URLIdentifierResolver -->
<g id="node17" class="node">
<title>citegraph.input.url_resolver.URLIdentifierResolver</title>
<polygon fill="none" stroke="black" points="0,-259.5 0,-295.5 141.25,-295.5 141.25,-259.5 0,-259.5"/>
<text xml:space="preserve" text-anchor="start" x="8" y="-272.7" font-family="Times New Roman,serif" font-size="14.00">URLIdentifierResolver</text>
</g>
<!-- citegraph.input.url_resolver.URLIdentifierResolver&#45;&gt;citegraph.metadata.resolver.MetadataResolver -->
<g id="edge9" class="edge">
<title>citegraph.input.url_resolver.URLIdentifierResolver&#45;&gt;citegraph.metadata.resolver.MetadataResolver</title>
<path fill="none" stroke="black" d="M141.54,-283.7C168.7,-286.18 200.06,-289.12 228.5,-292 234.05,-292.56 239.81,-293.16 245.58,-293.77"/>
<polygon fill="black" stroke="black" points="245.38,-293.75 251.77,-290.41 257.31,-295.03 250.92,-298.37 245.38,-293.75"/>
<text xml:space="preserve" text-anchor="middle" x="195.88" y="-295.2" font-family="Times New Roman,serif" font-size="14.00" fill="green">url_resolver</text>
</g>
<!-- citegraph.graph.weighting.WeightCalculator -->
<g id="node18" class="node">
<title>citegraph.graph.weighting.WeightCalculator</title>
<polygon fill="none" stroke="black" points="260.25,-0.5 260.25,-36.5 371.5,-36.5 371.5,-0.5 260.25,-0.5"/>
<text xml:space="preserve" text-anchor="start" x="268.25" y="-13.7" font-family="Times New Roman,serif" font-size="14.00">WeightCalculator</text>
</g>
<!-- citegraph.graph.weighting.WeightCalculator&#45;&gt;citegraph.pipeline.orchestrator.PipelineOrchestrator -->
<g id="edge7" class="edge">
<title>citegraph.graph.weighting.WeightCalculator&#45;&gt;citegraph.pipeline.orchestrator.PipelineOrchestrator</title>
<path fill="none" stroke="black" d="M371.61,-18.67C411.12,-21.23 464.14,-29.91 503,-56 538.55,-79.86 562.95,-124.14 576.17,-153.71"/>
<polygon fill="black" stroke="black" points="576.09,-153.52 582.12,-157.47 580.8,-164.56 574.76,-160.61 576.09,-153.52"/>
<text xml:space="preserve" text-anchor="middle" x="453.12" y="-59.2" font-family="Times New Roman,serif" font-size="14.00" fill="green">weight_calc</text>
</g>
</g>
</svg>
