<?xml version="1.0" encoding="UTF-8" standalone="no"?>
<!DOCTYPE svg PUBLIC "-//W3C//DTD SVG 1.1//EN"
 "http://www.w3.org/Graphics/SVG/1.1/DTD/svg11.dtd">
<!-- Generated by graphviz version 13.1.0 (20250701.0955)
 -->
<!-- Title: classes_KN Pages: 1 -->
<svg width="869pt" height="651pt"
 viewBox="0.00 0.00 869.00 651.00" xmlns="http://www.w3.org/2000/svg" xmlns:xlink="http://www.w3.org/1999/xlink">
<g id="graph0" class="graph" transform="scale(1 1) rotate(0) translate(4 647)">
<title>classes_KN</title>
<!-- citegraph.providers.arxiv_full_text.ArxivFullTextProvider -->
<g id="node1" class="node">
<title>citegraph.providers.arxiv_full_text.ArxivFullTextProvider</title>
<polygon fill="none" stroke="black" points="265.12,-329.5 265.12,-365.5 404.88,-365.5 404.88,-329.5 265.12,-329.5"/>
<text xml:space="preserve" text-anchor="start" x="273.12" y="-342.7" font-family="Times New Roman,serif" font-size="14.00">ArxivFullTextProvider</text>
</g>
<!-- citegraph.pipeline.orchestrator.PipelineOrchestrator -->
<g id="node15" class="node">
<title>citegraph.pipeline.orchestrator.PipelineOrchestrator</title>
<polygon fill="none" stroke="black" points="567,-212.5 567,-248.5 694.75,-248.5 694.75,-212.5 567,-212.5"/>
<text xml:space="preserve" text-anchor="start" x="575" y="-225.7" font-family="Times New Roman,serif" font-size="14.00">PipelineOrchestrator</text>
</g>
<!-- citegraph.providers.arxiv_full_text.ArxivFullTextProvider&#45;&gt;citegraph.pipeline.orchestrator.PipelineOrchestrator -->
<g id="edge16" class="edge">
<title>citegraph.providers.arxiv_full_text.ArxivFullTextProvider&#45;&gt;citegraph.pipeline.orchestrator.PipelineOrchestrator</title>
<path fill="none" stroke="black" d="M405.24,-342.23C447.4,-336.88 501.35,-326.13 545,-304.5 567.92,-293.14 589.58,-274.07 605.29,-258.12"/>
<polygon fill="black" stroke="black" points="605.36,-258.05 606.6,-250.94 613.63,-249.36 612.39,-256.46 605.36,-258.05"/>
<text xml:space="preserve" text-anchor="middle" x="493.25" y="-339.03" font-family="Times New Roman,serif" font-size="14.00" fill="green">arxiv_full_text</text>
</g>
<!-- citegraph.models.citation.CitationEdge -->
<g id="node2" class="node">
<title>citegraph.models.citation.CitationEdge</title>
<polygon fill="none" stroke="black" points="774,-503.5 774,-539.5 861.25,-539.5 861.25,-503.5 774,-503.5"/>
<text xml:space="preserve" text-anchor="start" x="782" y="-516.7" font-family="Times New Roman,serif" font-size="14.00">CitationEdge</text>
</g>
<!-- citegraph.citations.retriever.CitationRetriever -->
<g id="node3" class="node">
<title>citegraph.citations.retriever.CitationRetriever</title>
<polygon fill="none" stroke="black" points="280.12,-376.5 280.12,-412.5 389.88,-412.5 389.88,-376.5 280.12,-376.5"/>
<text xml:space="preserve" text-anchor="start" x="288.12" y="-389.7" font-family="Times New Roman,serif" font-size="14.00">CitationRetriever</text>
</g>
<!-- citegraph.citations.traversal.CitationTraversal -->
<g id="node4" class="node">
<title>citegraph.citations.traversal.CitationTraversal</title>
<polygon fill="none" stroke="black" points="575.62,-480.5 575.62,-516.5 686.12,-516.5 686.12,-480.5 575.62,-480.5"/>
<text xml:space="preserve" text-anchor="start" x="583.62" y="-493.7" font-family="Times New Roman,serif" font-size="14.00">CitationTraversal</text>
</g>
<!-- citegraph.citations.retriever.CitationRetriever&#45;&gt;citegraph.citations.traversal.CitationTraversal -->
<g id="edge19" class="edge">
<title>citegraph.citations.retriever.CitationRetriever&#45;&gt;citegraph.citations.traversal.CitationTraversal</title>
<path fill="none" stroke="black" d="M390.32,-403.99C400.65,-407.43 410.9,-412.12 419.5,-418.5 433.96,-429.22 426.28,-442.89 441.5,-452.5 480.73,-477.26 500.03,-454.63 545,-466 555.11,-468.56 565.67,-471.96 575.75,-475.61"/>
<polygon fill="none" stroke="black" points="575.69,-475.58 582.72,-473.95 586.92,-479.81 579.9,-481.44 575.69,-475.58"/>
<text xml:space="preserve" text-anchor="middle" x="493.25" y="-469.2" font-family="Times New Roman,serif" font-size="14.00" fill="green">retriever</text>
</g>
<!-- citegraph.citations.retriever.CitationRetriever&#45;&gt;citegraph.pipeline.orchestrator.PipelineOrchestrator -->
<g id="edge6" class="edge">
<title>citegraph.citations.retriever.CitationRetriever&#45;&gt;citegraph.pipeline.orchestrator.PipelineOrchestrator</title>
<path fill="none" stroke="black" d="M390.2,-383.91C406.67,-380.7 424.82,-377.19 441.5,-374 487.48,-365.2 505.8,-380.09 545,-354.5 579.82,-331.77 604.19,-289.26 617.62,-260.43"/>
<polygon fill="black" stroke="black" points="617.62,-260.42 616.4,-253.31 622.49,-249.46 623.71,-256.56 617.62,-260.42"/>
<text xml:space="preserve" text-anchor="middle" x="493.25" y="-377.2" font-family="Times New Roman,serif" font-size="14.00" fill="green">citation_retriever</text>
</g>
<!-- citegraph.citations.traversal.CitationTraversal&#45;&gt;citegraph.models.citation.CitationEdge -->
<g id="edge2" class="edge">
<title>citegraph.citations.traversal.CitationTraversal&#45;&gt;citegraph.models.citation.CitationEdge</title>
<path fill="none" stroke="black" d="M686.56,-505.31C710.53,-508.29 738.59,-511.79 762.5,-514.76"/>
<polygon fill="black" stroke="black" points="772.31,-515.98 761.83,-519.21 768.56,-515.52 762.39,-514.75 762.39,-514.75 762.39,-514.75 768.56,-515.52 762.94,-510.28 772.31,-515.98"/>
<text xml:space="preserve" text-anchor="middle" x="734.38" y="-516.6" font-family="Times New Roman,serif" font-size="14.00" fill="green">edges</text>
</g>
<!-- citegraph.models.paper.Paper -->
<g id="node13" class="node">
<title>citegraph.models.paper.Paper</title>
<polygon fill="none" stroke="black" points="790.62,-456.5 790.62,-492.5 844.62,-492.5 844.62,-456.5 790.62,-456.5"/>
<text xml:space="preserve" text-anchor="start" x="802.25" y="-469.7" font-family="Times New Roman,serif" font-size="14.00">Paper</text>
</g>
<!-- citegraph.citations.traversal.CitationTraversal&#45;&gt;citegraph.models.paper.Paper -->
<g id="edge3" class="edge">
<title>citegraph.citations.traversal.CitationTraversal&#45;&gt;citegraph.models.paper.Paper</title>
<path fill="none" stroke="black" d="M686.56,-491.4C716.54,-487.5 752.91,-482.78 779.56,-479.32"/>
<polygon fill="black" stroke="black" points="789.13,-478.07 779.79,-483.82 785.38,-478.56 779.21,-479.36 779.21,-479.36 779.21,-479.36 785.38,-478.56 778.63,-474.9 789.13,-478.07"/>
<text xml:space="preserve" text-anchor="middle" x="734.38" y="-490.42" font-family="Times New Roman,serif" font-size="14.00" fill="green">papers</text>
</g>
<!-- citegraph.vision.flow_diagram.Count -->
<g id="node5" class="node">
<title>citegraph.vision.flow_diagram.Count</title>
<polygon fill="none" stroke="black" points="43.62,-559.5 43.62,-595.5 97.62,-595.5 97.62,-559.5 43.62,-559.5"/>
<text xml:space="preserve" text-anchor="start" x="54.12" y="-572.7" font-family="Times New Roman,serif" font-size="14.00">Count</text>
</g>
<!-- citegraph.vision.flow_diagram.Region -->
<g id="node18" class="node">
<title>citegraph.vision.flow_diagram.Region</title>
<polygon fill="none" stroke="black" points="307.5,-559.5 307.5,-595.5 362.5,-595.5 362.5,-559.5 307.5,-559.5"/>
<text xml:space="preserve" text-anchor="start" x="315.5" y="-572.7" font-family="Times New Roman,serif" font-size="14.00">Region</text>
</g>
<!-- citegraph.vision.flow_diagram.Count&#45;&gt;citegraph.vision.flow_diagram.Region -->
<g id="edge5" class="edge">
<title>citegraph.vision.flow_diagram.Count&#45;&gt;citegraph.vision.flow_diagram.Region</title>
<path fill="none" stroke="black" d="M97.74,-577.5C144.35,-577.5 242.04,-577.5 296.06,-577.5"/>
<polygon fill="black" stroke="black" points="305.99,-577.5 295.99,-582 302.21,-577.5 295.99,-577.5 295.99,-577.5 295.99,-577.5 302.21,-577.5 295.99,-573 305.99,-577.5"/>
<text xml:space="preserve" text-anchor="middle" x="195.88" y="-580.7" font-family="Times New Roman,serif" font-size="14.00" fill="green">region</text>
</g>
<!-- citegraph.providers.europe_pmc.EuropePMCProvider -->
<g id="node6" class="node">
<title>citegraph.providers.europe_pmc.EuropePMCProvider</title>
<polygon fill="none" stroke="black" points="269.62,-141.5 269.62,-177.5 400.38,-177.5 400.38,-141.5 269.62,-141.5"/>
<text xml:space="preserve" text-anchor="start" x="277.62" y="-154.7" font-family="Times New Roman,serif" font-size="14.00">EuropePMCProvider</text>
</g>
<!-- citegraph.providers.europe_pmc.EuropePMCProvider&#45;&gt;citegraph.pipeline.orchestrator.PipelineOrchestrator -->
<g id="edge17" class="edge">
<title>citegraph.providers.europe_pmc.EuropePMCProvider&#45;&gt;citegraph.pipeline.orchestrator.PipelineOrchestrator</title>
<path fill="none" stroke="black" d="M400.52,-165.5C442.32,-170.45 497.6,-178.99 545,-193 557.4,-196.67 570.36,-201.72 582.32,-206.93"/>
<polygon fill="black" stroke="black" points="582.13,-206.84 589.24,-205.66 593.06,-211.77 585.95,-212.95 582.13,-206.84"/>
<text xml:space="preserve" text-anchor="middle" x="493.25" y="-196.2" font-family="Times New Roman,serif" font-size="14.00" fill="green">europe_pmc</text>
</g>
<!-- citegraph.graph.builder.GraphBuilder -->
<g id="node7" class="node">
<title>citegraph.graph.builder.GraphBuilder</title>
<polygon fill="none" stroke="black" points="289.88,-47.5 289.88,-83.5 380.12,-83.5 380.12,-47.5 289.88,-47.5"/>
<text xml:space="preserve" text-anchor="start" x="297.88" y="-60.7" font-family="Times New Roman,serif" font-size="14.00">GraphBuilder</text>
</g>
<!-- citegraph.graph.builder.GraphBuilder&#45;&gt;citegraph.pipeline.orchestrator.PipelineOrchestrator -->
<g id="edge7" class="edge">
<title>citegraph.graph.builder.GraphBuilder&#45;&gt;citegraph.pipeline.orchestrator.PipelineOrchestrator</title>
<path fill="none" stroke="black" d="M380.47,-64C425.48,-64.57 495.35,-71.4 545,-104 580.59,-127.37 604.99,-171.38 618.19,-200.82"/>
<polygon fill="black" stroke="black" points="618.09,-200.59 624.13,-204.53 622.81,-211.62 616.77,-207.68 618.09,-200.59"/>
<text xml:space="preserve" text-anchor="middle" x="493.25" y="-107.2" font-family="Times New Roman,serif" font-size="14.00" fill="green">graph_builder</text>
</g>
<!-- citegraph.input.normalizer.InputNormalizer -->
<g id="node8" class="node">
<title>citegraph.input.normalizer.InputNormalizer</title>
<polygon fill="none" stroke="black" points="281.62,-0.5 281.62,-36.5 388.38,-36.5 388.38,-0.5 281.62,-0.5"/>
<text xml:space="preserve" text-anchor="start" x="289.62" y="-13.7" font-family="Times New Roman,serif" font-size="14.00">InputNormalizer</text>
</g>
<!-- citegraph.input.normalizer.InputNormalizer&#45;&gt;citegraph.pipeline.orchestrator.PipelineOrchestrator -->
<g id="edge9" class="edge">
<title>citegraph.input.normalizer.InputNormalizer&#45;&gt;citegraph.pipeline.orchestrator.PipelineOrchestrator</title>
<path fill="none" stroke="black" d="M388.86,-13.39C434.55,-11.78 500.13,-16.56 545,-50 593.9,-86.44 615.68,-158.15 624.52,-199.37"/>
<polygon fill="black" stroke="black" points="624.53,-199.43 629.62,-204.54 626.87,-211.2 621.78,-206.09 624.53,-199.43"/>
<text xml:space="preserve" text-anchor="middle" x="493.25" y="-53.2" font-family="Times New Roman,serif" font-size="14.00" fill="green">normalizer</text>
</g>
<!-- citegraph.metadata.merger.MetadataMerger -->
<g id="node9" class="node">
<title>citegraph.metadata.merger.MetadataMerger</title>
<polygon fill="none" stroke="black" points="16.88,-446.5 16.88,-482.5 124.38,-482.5 124.38,-446.5 16.88,-446.5"/>
<text xml:space="preserve" text-anchor="start" x="24.88" y="-459.7" font-family="Times New Roman,serif" font-size="14.00">MetadataMerger</text>
</g>
<!-- citegraph.metadata.resolver.MetadataResolver -->
<g id="node11" class="node">
<title>citegraph.metadata.resolver.MetadataResolver</title>
<polygon fill="none" stroke="black" points="277.5,-423.5 277.5,-459.5 392.5,-459.5 392.5,-423.5 277.5,-423.5"/>
<text xml:space="preserve" text-anchor="start" x="285.5" y="-436.7" font-family="Times New Roman,serif" font-size="14.00">MetadataResolver</text>
</g>
<!-- citegraph.metadata.merger.MetadataMerger&#45;&gt;citegraph.metadata.resolver.MetadataResolver -->
<g id="edge11" class="edge">
<title>citegraph.metadata.merger.MetadataMerger&#45;&gt;citegraph.metadata.resolver.MetadataResolver</title>
<path fill="none" stroke="black" d="M124.72,-459.85C164.97,-456.32 220.65,-451.44 264.46,-447.6"/>
<polygon fill="black" stroke="black" points="264.5,-447.59 270.13,-443.08 276.45,-446.54 270.83,-451.05 264.5,-447.59"/>
<text xml:space="preserve" text-anchor="middle" x="195.88" y="-459.6" font-family="Times New Roman,serif" font-size="14.00" fill="green">merger</text>
</g>
<!-- citegraph.providers.base.MetadataProvider -->
<g id="node10" class="node">
<title>citegraph.providers.base.MetadataProvider</title>
<polygon fill="none" stroke="black" points="574.12,-416.5 574.12,-452.5 687.62,-452.5 687.62,-416.5 574.12,-416.5"/>
<text xml:space="preserve" text-anchor="start" x="582.12" y="-429.7" font-family="Times New Roman,serif" font-size="14.00">MetadataProvider</text>
</g>
<!-- citegraph.metadata.resolver.MetadataResolver&#45;&gt;citegraph.citations.traversal.CitationTraversal -->
<g id="edge20" class="edge">
<title>citegraph.metadata.resolver.MetadataResolver&#45;&gt;citegraph.citations.traversal.CitationTraversal</title>
<path fill="none" stroke="black" d="M373.15,-459.98C392.95,-468.96 418.01,-478.98 441.5,-484.5 480.88,-493.75 526.05,-497.33 562.28,-498.57"/>
<polygon fill="none" stroke="black" points="562.3,-498.57 568.41,-494.73 574.3,-498.9 568.19,-502.73 562.3,-498.57"/>
<text xml:space="preserve" text-anchor="middle" x="493.25" y="-500.92" font-family="Times New Roman,serif" font-size="14.00" fill="green">resolver</text>
</g>
<!-- citegraph.metadata.resolver.MetadataResolver&#45;&gt;citegraph.providers.base.MetadataProvider -->
<g id="edge4" class="edge">
<title>citegraph.metadata.resolver.MetadataResolver&#45;&gt;citegraph.providers.base.MetadataProvider</title>
<path fill="none" stroke="black" d="M392.94,-439.46C408.67,-438.94 425.74,-438.41 441.5,-438 481.8,-436.96 526.96,-436.11 562.96,-435.51"/>
<polygon fill="black" stroke="black" points="572.6,-435.35 562.68,-440.01 568.82,-435.41 562.6,-435.51 562.6,-435.51 562.6,-435.51 568.82,-435.41 562.53,-431.01 572.6,-435.35"/>
<text xml:space="preserve" text-anchor="middle" x="493.25" y="-441.2" font-family="Times New Roman,serif" font-size="14.00" fill="green">providers</text>
</g>
<!-- citegraph.metadata.resolver.MetadataResolver&#45;&gt;citegraph.pipeline.orchestrator.PipelineOrchestrator -->
<g id="edge12" class="edge">
<title>citegraph.metadata.resolver.MetadataResolver&#45;&gt;citegraph.pipeline.orchestrator.PipelineOrchestrator</title>
<path fill="none" stroke="black" d="M392.79,-428.29C452.56,-414.21 538.87,-393.29 545,-388.5 586.74,-355.89 610.49,-296.86 621.72,-260.91"/>
<polygon fill="black" stroke="black" points="621.64,-261.18 619.51,-254.29 625.05,-249.67 627.18,-256.56 621.64,-261.18"/>
<text xml:space="preserve" text-anchor="middle" x="493.25" y="-419.48" font-family="Times New Roman,serif" font-size="14.00" fill="green">metadata_resolver</text>
</g>
<!-- citegraph.providers.openalex.OpenAlexProvider -->
<g id="node12" class="node">
<title>citegraph.providers.openalex.OpenAlexProvider</title>
<polygon fill="none" stroke="black" points="276,-512.5 276,-548.5 394,-548.5 394,-512.5 276,-512.5"/>
<text xml:space="preserve" text-anchor="start" x="284" y="-525.7" font-family="Times New Roman,serif" font-size="14.00">OpenAlexProvider</text>
</g>
<!-- citegraph.providers.openalex.OpenAlexProvider&#45;&gt;citegraph.citations.traversal.CitationTraversal -->
<g id="edge18" class="edge">
<title>citegraph.providers.openalex.OpenAlexProvider&#45;&gt;citegraph.citations.traversal.CitationTraversal</title>
<path fill="none" stroke="black" d="M394.34,-528.81C436.38,-527.06 494.39,-523.53 545,-516.5 550.85,-515.69 556.89,-514.7 562.94,-513.62"/>
<polygon fill="black" stroke="black" points="562.61,-513.68 567.76,-508.63 574.4,-511.44 569.26,-516.49 562.61,-513.68"/>
<text xml:space="preserve" text-anchor="middle" x="493.25" y="-529.5" font-family="Times New Roman,serif" font-size="14.00" fill="green">openalex</text>
</g>
<!-- citegraph.models.paper.PaperQuery -->
<g id="node14" class="node">
<title>citegraph.models.paper.PaperQuery</title>
<polygon fill="none" stroke="black" points="294.75,-606.5 294.75,-642.5 375.25,-642.5 375.25,-606.5 294.75,-606.5"/>
<text xml:space="preserve" text-anchor="start" x="302.75" y="-619.7" font-family="Times New Roman,serif" font-size="14.00">PaperQuery</text>
</g>
<!-- citegraph.nlp.population_extractor.PopulationExtractor -->
<g id="node16" class="node">
<title>citegraph.nlp.population_extractor.PopulationExtractor</title>
<polygon fill="none" stroke="black" points="272.62,-282.5 272.62,-318.5 397.38,-318.5 397.38,-282.5 272.62,-282.5"/>
<text xml:space="preserve" text-anchor="start" x="280.62" y="-295.7" font-family="Times New Roman,serif" font-size="14.00">PopulationExtractor</text>
</g>
<!-- citegraph.nlp.population_extractor.PopulationExtractor&#45;&gt;citegraph.pipeline.orchestrator.PipelineOrchestrator -->
<g id="edge13" class="edge">
<title>citegraph.nlp.population_extractor.PopulationExtractor&#45;&gt;citegraph.pipeline.orchestrator.PipelineOrchestrator</title>
<path fill="none" stroke="black" d="M397.52,-292.84C439.54,-286.82 496.21,-277.16 545,-263.5 554.96,-260.71 565.37,-257.19 575.35,-253.5"/>
<polygon fill="black" stroke="black" points="575.2,-253.56 579.38,-247.68 586.41,-249.27 582.23,-255.15 575.2,-253.56"/>
<text xml:space="preserve" text-anchor="middle" x="493.25" y="-288.89" font-family="Times New Roman,serif" font-size="14.00" fill="green">pop_extractor</text>
</g>
<!-- citegraph.nlp.population_resolver.PopulationResolver -->
<g id="node17" class="node">
<title>citegraph.nlp.population_resolver.PopulationResolver</title>
<polygon fill="none" stroke="black" points="273.75,-235.5 273.75,-271.5 396.25,-271.5 396.25,-235.5 273.75,-235.5"/>
<text xml:space="preserve" text-anchor="start" x="281.75" y="-248.7" font-family="Times New Roman,serif" font-size="14.00">PopulationResolver</text>
</g>
<!-- citegraph.nlp.population_resolver.PopulationResolver&#45;&gt;citegraph.pipeline.orchestrator.PipelineOrchestrator -->
<g id="edge14" class="edge">
<title>citegraph.nlp.population_resolver.PopulationResolver&#45;&gt;citegraph.pipeline.orchestrator.PipelineOrchestrator</title>
<path fill="none" stroke="black" d="M396.53,-248.76C442.11,-245.2 504.89,-240.28 553.85,-236.45"/>
<polygon fill="black" stroke="black" points="553.76,-236.46 559.43,-232 565.73,-235.52 560.06,-239.98 553.76,-236.46"/>
<text xml:space="preserve" text-anchor="middle" x="493.25" y="-247.94" font-family="Times New Roman,serif" font-size="14.00" fill="green">pop_resolver</text>
</g>
<!-- citegraph.api.routes.RunRequest -->
<g id="node19" class="node">
<title>citegraph.api.routes.RunRequest</title>
<polygon fill="none" stroke="black" points="29.62,-606.5 29.62,-642.5 111.62,-642.5 111.62,-606.5 29.62,-606.5"/>
<text xml:space="preserve" text-anchor="start" x="37.62" y="-619.7" font-family="Times New Roman,serif" font-size="14.00">RunRequest</text>
</g>
<!-- citegraph.api.routes.RunRequest&#45;&gt;citegraph.models.paper.PaperQuery -->
<g id="edge1" class="edge">
<title>citegraph.api.routes.RunRequest&#45;&gt;citegraph.models.paper.PaperQuery</title>
<path fill="none" stroke="black" d="M112.05,-624.5C157.96,-624.5 232.96,-624.5 282.89,-624.5"/>
<polygon fill="none" stroke="black" points="282.88,-628 292.88,-624.5 282.88,-621 282.88,-628"/>
</g>
<!-- citegraph.nlp.technical_evidence.TechnicalEvidenceExtractor -->
<g id="node20" class="node">
<title>citegraph.nlp.technical_evidence.TechnicalEvidenceExtractor</title>
<polygon fill="none" stroke="black" points="250.5,-94.5 250.5,-130.5 419.5,-130.5 419.5,-94.5 250.5,-94.5"/>
<text xml:space="preserve" text-anchor="start" x="258.5" y="-107.7" font-family="Times New Roman,serif" font-size="14.00">TechnicalEvidenceExtractor</text>
</g>
<!-- citegraph.nlp.technical_evidence.TechnicalEvidenceExtractor&#45;&gt;citegraph.pipeline.orchestrator.PipelineOrchestrator -->
<g id="edge15" class="edge">
<title>citegraph.nlp.technical_evidence.TechnicalEvidenceExtractor&#45;&gt;citegraph.pipeline.orchestrator.PipelineOrchestrator</title>
<path fill="none" stroke="black" d="M419.76,-118.18C459.39,-123.45 506.36,-133.58 545,-153 568.85,-164.98 590.94,-185.6 606.61,-202.56"/>
<polygon fill="black" stroke="black" points="606.47,-202.4 613.45,-204.21 614.45,-211.35 607.48,-209.54 606.47,-202.4"/>
<text xml:space="preserve" text-anchor="middle" x="493.25" y="-156.2" font-family="Times New Roman,serif" font-size="14.00" fill="green">technical_extractor</text>
</g>
<!-- citegraph.input.url_resolver.URLIdentifierResolver -->
<g id="node21" class="node">
<title>citegraph.input.url_resolver.URLIdentifierResolver</title>
<polygon fill="none" stroke="black" points="0,-399.5 0,-435.5 141.25,-435.5 141.25,-399.5 0,-399.5"/>
<text xml:space="preserve" text-anchor="start" x="8" y="-412.7" font-family="Times New Roman,serif" font-size="14.00">URLIdentifierResolver</text>
</g>
<!-- citegraph.input.url_resolver.URLIdentifierResolver&#45;&gt;citegraph.metadata.resolver.MetadataResolver -->
<g id="edge10" class="edge">
<title>citegraph.input.url_resolver.URLIdentifierResolver&#45;&gt;citegraph.metadata.resolver.MetadataResolver</title>
<path fill="none" stroke="black" d="M141.59,-423.9C179.64,-427.38 226.56,-431.67 264.53,-435.15"/>
<polygon fill="black" stroke="black" points="264.19,-435.11 270.53,-431.68 276.14,-436.21 269.8,-439.64 264.19,-435.11"/>
<text xml:space="preserve" text-anchor="middle" x="195.88" y="-434.85" font-family="Times New Roman,serif" font-size="14.00" fill="green">url_resolver</text>
</g>
<!-- citegraph.graph.weighting.WeightCalculator -->
<g id="node22" class="node">
<title>citegraph.graph.weighting.WeightCalculator</title>
<polygon fill="none" stroke="black" points="279.38,-188.5 279.38,-224.5 390.62,-224.5 390.62,-188.5 279.38,-188.5"/>
<text xml:space="preserve" text-anchor="start" x="287.38" y="-201.7" font-family="Times New Roman,serif" font-size="14.00">WeightCalculator</text>
</g>
<!-- citegraph.graph.weighting.WeightCalculator&#45;&gt;citegraph.pipeline.orchestrator.PipelineOrchestrator -->
<g id="edge8" class="edge">
<title>citegraph.graph.weighting.WeightCalculator&#45;&gt;citegraph.pipeline.orchestrator.PipelineOrchestrator</title>
<path fill="none" stroke="black" d="M391.09,-208.67C433.29,-210.6 492.9,-213.92 545,-219 548,-219.29 551.05,-219.61 554.13,-219.95"/>
<polygon fill="black" stroke="black" points="554.09,-219.94 560.51,-216.66 566.01,-221.33 559.58,-224.61 554.09,-219.94"/>
<text xml:space="preserve" text-anchor="middle" x="493.25" y="-222.2" font-family="Times New Roman,serif" font-size="14.00" fill="green">weight_calc</text>
</g>
</g>
</svg>
