<?xml version="1.0" encoding="UTF-8" standalone="no"?>
<!DOCTYPE svg PUBLIC "-//W3C//DTD SVG 1.1//EN"
 "http://www.w3.org/Graphics/SVG/1.1/DTD/svg11.dtd">
<!-- Generated by graphviz version 13.1.0 (20250701.0955)
 -->
<!-- Title: datamodel Pages: 1 -->
<svg width="947pt" height="1784pt"
 viewBox="0.00 0.00 947.00 1784.00" xmlns="http://www.w3.org/2000/svg" xmlns:xlink="http://www.w3.org/1999/xlink">
<g id="graph0" class="graph" transform="scale(1 1) rotate(0) translate(4 1780)">
<title>datamodel</title>
<!-- PaperQuery -->
<g id="node1" class="node">
<title>PaperQuery</title>
<polygon fill="#1f4e79" stroke="none" points="8,-1653 8,-1678 224.5,-1678 224.5,-1653 8,-1653"/>
<polygon fill="none" stroke="black" points="8,-1653 8,-1678 224.5,-1678 224.5,-1653 8,-1653"/>
<text xml:space="preserve" text-anchor="start" x="78.38" y="-1661.65" font-family="Helvetica,sans-Serif" font-weight="bold" font-size="13.00" fill="white">PaperQuery</text>
<polygon fill="none" stroke="black" points="8,-1629.5 8,-1653 71.25,-1653 71.25,-1629.5 8,-1629.5"/>
<text xml:space="preserve" text-anchor="start" x="13" y="-1637.55" font-family="Helvetica,sans-Serif" font-size="11.00">query_type</text>
<polygon fill="none" stroke="black" points="71.25,-1629.5 71.25,-1653 224.5,-1653 224.5,-1629.5 71.25,-1629.5"/>
<text xml:space="preserve" text-anchor="start" x="76.25" y="-1637.75" font-family="Helvetica,sans-Serif" font-size="10.00" fill="#777777">Literal[&#39;doi&#39;, &#39;pmid&#39;, &#39;pmcid&#39;, &#39;titl…</text>
<polygon fill="none" stroke="black" points="8,-1606 8,-1629.5 71.25,-1629.5 71.25,-1606 8,-1606"/>
<text xml:space="preserve" text-anchor="start" x="13" y="-1614.05" font-family="Helvetica,sans-Serif" font-size="11.00">value</text>
<polygon fill="none" stroke="black" points="71.25,-1606 71.25,-1629.5 224.5,-1629.5 224.5,-1606 71.25,-1606"/>
<text xml:space="preserve" text-anchor="start" x="76.25" y="-1614.25" font-family="Helvetica,sans-Serif" font-size="10.00" fill="#777777">str</text>
<polygon fill="none" stroke="black" points="8,-1582.5 8,-1606 71.25,-1606 71.25,-1582.5 8,-1582.5"/>
<text xml:space="preserve" text-anchor="start" x="13" y="-1590.55" font-family="Helvetica,sans-Serif" font-size="11.00">pdf_path</text>
<polygon fill="none" stroke="black" points="71.25,-1582.5 71.25,-1606 224.5,-1606 224.5,-1582.5 71.25,-1582.5"/>
<text xml:space="preserve" text-anchor="start" x="76.25" y="-1590.75" font-family="Helvetica,sans-Serif" font-size="10.00" fill="#777777">str | None</text>
</g>
<!-- Paper -->
<g id="node2" class="node">
<title>Paper</title>
<polygon fill="#1f4e79" stroke="none" points="503.12,-1370 503.12,-1395 681.38,-1395 681.38,-1370 503.12,-1370"/>
<polygon fill="none" stroke="black" points="503.12,-1370 503.12,-1395 681.38,-1395 681.38,-1370 503.12,-1370"/>
<text xml:space="preserve" text-anchor="start" x="573.5" y="-1378.65" font-family="Helvetica,sans-Serif" font-weight="bold" font-size="13.00" fill="white">Paper</text>
<polygon fill="none" stroke="black" points="503.12,-1346.5 503.12,-1370 615.88,-1370 615.88,-1346.5 503.12,-1346.5"/>
<text xml:space="preserve" text-anchor="start" x="508.12" y="-1354.55" font-family="Helvetica,sans-Serif" font-size="11.00">paper_id</text>
<polygon fill="none" stroke="black" points="615.88,-1346.5 615.88,-1370 681.38,-1370 681.38,-1346.5 615.88,-1346.5"/>
<text xml:space="preserve" text-anchor="start" x="620.88" y="-1354.75" font-family="Helvetica,sans-Serif" font-size="10.00" fill="#777777">str</text>
<polygon fill="none" stroke="black" points="503.12,-1323 503.12,-1346.5 615.88,-1346.5 615.88,-1323 503.12,-1323"/>
<text xml:space="preserve" text-anchor="start" x="508.12" y="-1331.05" font-family="Helvetica,sans-Serif" font-size="11.00">doi</text>
<polygon fill="none" stroke="black" points="615.88,-1323 615.88,-1346.5 681.38,-1346.5 681.38,-1323 615.88,-1323"/>
<text xml:space="preserve" text-anchor="start" x="620.88" y="-1331.25" font-family="Helvetica,sans-Serif" font-size="10.00" fill="#777777">str | None</text>
<polygon fill="none" stroke="black" points="503.12,-1299.5 503.12,-1323 615.88,-1323 615.88,-1299.5 503.12,-1299.5"/>
<text xml:space="preserve" text-anchor="start" x="508.12" y="-1307.55" font-family="Helvetica,sans-Serif" font-size="11.00">pmid</text>
<polygon fill="none" stroke="black" points="615.88,-1299.5 615.88,-1323 681.38,-1323 681.38,-1299.5 615.88,-1299.5"/>
<text xml:space="preserve" text-anchor="start" x="620.88" y="-1307.75" font-family="Helvetica,sans-Serif" font-size="10.00" fill="#777777">str | None</text>
<polygon fill="none" stroke="black" points="503.12,-1276 503.12,-1299.5 615.88,-1299.5 615.88,-1276 503.12,-1276"/>
<text xml:space="preserve" text-anchor="start" x="508.12" y="-1284.05" font-family="Helvetica,sans-Serif" font-size="11.00">pmcid</text>
<polygon fill="none" stroke="black" points="615.88,-1276 615.88,-1299.5 681.38,-1299.5 681.38,-1276 615.88,-1276"/>
<text xml:space="preserve" text-anchor="start" x="620.88" y="-1284.25" font-family="Helvetica,sans-Serif" font-size="10.00" fill="#777777">str | None</text>
<polygon fill="none" stroke="black" points="503.12,-1252.5 503.12,-1276 615.88,-1276 615.88,-1252.5 503.12,-1252.5"/>
<text xml:space="preserve" text-anchor="start" x="508.12" y="-1260.55" font-family="Helvetica,sans-Serif" font-size="11.00">openalex_id</text>
<polygon fill="none" stroke="black" points="615.88,-1252.5 615.88,-1276 681.38,-1276 681.38,-1252.5 615.88,-1252.5"/>
<text xml:space="preserve" text-anchor="start" x="620.88" y="-1260.75" font-family="Helvetica,sans-Serif" font-size="10.00" fill="#777777">str | None</text>
<polygon fill="none" stroke="black" points="503.12,-1229 503.12,-1252.5 615.88,-1252.5 615.88,-1229 503.12,-1229"/>
<text xml:space="preserve" text-anchor="start" x="508.12" y="-1237.05" font-family="Helvetica,sans-Serif" font-size="11.00">title</text>
<polygon fill="none" stroke="black" points="615.88,-1229 615.88,-1252.5 681.38,-1252.5 681.38,-1229 615.88,-1229"/>
<text xml:space="preserve" text-anchor="start" x="620.88" y="-1237.25" font-family="Helvetica,sans-Serif" font-size="10.00" fill="#777777">str</text>
<polygon fill="none" stroke="black" points="503.12,-1205.5 503.12,-1229 615.88,-1229 615.88,-1205.5 503.12,-1205.5"/>
<text xml:space="preserve" text-anchor="start" x="508.12" y="-1213.55" font-family="Helvetica,sans-Serif" font-size="11.00">authors</text>
<polygon fill="none" stroke="black" points="615.88,-1205.5 615.88,-1229 681.38,-1229 681.38,-1205.5 615.88,-1205.5"/>
<text xml:space="preserve" text-anchor="start" x="620.88" y="-1213.75" font-family="Helvetica,sans-Serif" font-size="10.00" fill="#777777">list[str]</text>
<polygon fill="none" stroke="black" points="503.12,-1182 503.12,-1205.5 615.88,-1205.5 615.88,-1182 503.12,-1182"/>
<text xml:space="preserve" text-anchor="start" x="508.12" y="-1190.05" font-family="Helvetica,sans-Serif" font-size="11.00">year</text>
<polygon fill="none" stroke="black" points="615.88,-1182 615.88,-1205.5 681.38,-1205.5 681.38,-1182 615.88,-1182"/>
<text xml:space="preserve" text-anchor="start" x="620.88" y="-1190.25" font-family="Helvetica,sans-Serif" font-size="10.00" fill="#777777">int | None</text>
<polygon fill="none" stroke="black" points="503.12,-1158.5 503.12,-1182 615.88,-1182 615.88,-1158.5 503.12,-1158.5"/>
<text xml:space="preserve" text-anchor="start" x="508.12" y="-1166.55" font-family="Helvetica,sans-Serif" font-size="11.00">journal</text>
<polygon fill="none" stroke="black" points="615.88,-1158.5 615.88,-1182 681.38,-1182 681.38,-1158.5 615.88,-1158.5"/>
<text xml:space="preserve" text-anchor="start" x="620.88" y="-1166.75" font-family="Helvetica,sans-Serif" font-size="10.00" fill="#777777">str | None</text>
<polygon fill="none" stroke="black" points="503.12,-1135 503.12,-1158.5 615.88,-1158.5 615.88,-1135 503.12,-1135"/>
<text xml:space="preserve" text-anchor="start" x="508.12" y="-1143.05" font-family="Helvetica,sans-Serif" font-size="11.00">abstract</text>
<polygon fill="none" stroke="black" points="615.88,-1135 615.88,-1158.5 681.38,-1158.5 681.38,-1135 615.88,-1135"/>
<text xml:space="preserve" text-anchor="start" x="620.88" y="-1143.25" font-family="Helvetica,sans-Serif" font-size="10.00" fill="#777777">str | None</text>
<polygon fill="none" stroke="black" points="503.12,-1111.5 503.12,-1135 615.88,-1135 615.88,-1111.5 503.12,-1111.5"/>
<text xml:space="preserve" text-anchor="start" x="508.12" y="-1119.55" font-family="Helvetica,sans-Serif" font-size="11.00">source_ids</text>
<polygon fill="none" stroke="black" points="615.88,-1111.5 615.88,-1135 681.38,-1135 681.38,-1111.5 615.88,-1111.5"/>
<text xml:space="preserve" text-anchor="start" x="620.88" y="-1119.75" font-family="Helvetica,sans-Serif" font-size="10.00" fill="#777777">dict[str, str]</text>
<polygon fill="none" stroke="black" points="503.12,-1088 503.12,-1111.5 615.88,-1111.5 615.88,-1088 503.12,-1088"/>
<text xml:space="preserve" text-anchor="start" x="508.12" y="-1096.05" font-family="Helvetica,sans-Serif" font-size="11.00">metadata_confidence</text>
<polygon fill="none" stroke="black" points="615.88,-1088 615.88,-1111.5 681.38,-1111.5 681.38,-1088 615.88,-1088"/>
<text xml:space="preserve" text-anchor="start" x="620.88" y="-1096.25" font-family="Helvetica,sans-Serif" font-size="10.00" fill="#777777">float</text>
<polygon fill="none" stroke="black" points="503.12,-1064.5 503.12,-1088 615.88,-1088 615.88,-1064.5 503.12,-1064.5"/>
<text xml:space="preserve" text-anchor="start" x="508.12" y="-1072.55" font-family="Helvetica,sans-Serif" font-size="11.00">provenance</text>
<polygon fill="none" stroke="black" points="615.88,-1064.5 615.88,-1088 681.38,-1088 681.38,-1064.5 615.88,-1064.5"/>
<text xml:space="preserve" text-anchor="start" x="620.88" y="-1072.75" font-family="Helvetica,sans-Serif" font-size="10.00" fill="#777777">dict[str, Any]</text>
</g>
<!-- PaperQuery&#45;&gt;Paper -->
<g id="edge1" class="edge">
<title>PaperQuery&#45;&gt;Paper</title>
<path fill="none" stroke="#666666" d="M176.54,-1578.78C254.96,-1513.13 393.18,-1397.4 488.59,-1317.53"/>
<polygon fill="#666666" stroke="#666666" points="490.16,-1319.65 494.22,-1312.82 486.79,-1315.62 490.16,-1319.65"/>
<text xml:space="preserve" text-anchor="middle" x="365.85" y="-1438.05" font-family="Helvetica,sans-Serif" font-size="11.00">resolves to</text>
</g>
<!-- Study -->
<g id="node3" class="node">
<title>Study</title>
<polygon fill="#1f4e79" stroke="none" points="675,-887.25 675,-912.25 831.5,-912.25 831.5,-887.25 675,-887.25"/>
<polygon fill="none" stroke="black" points="675,-887.25 675,-912.25 831.5,-912.25 831.5,-887.25 675,-887.25"/>
<text xml:space="preserve" text-anchor="start" x="734.5" y="-895.9" font-family="Helvetica,sans-Serif" font-weight="bold" font-size="13.00" fill="white">Study</text>
<polygon fill="none" stroke="black" points="675,-863.75 675,-887.25 778.75,-887.25 778.75,-863.75 675,-863.75"/>
<text xml:space="preserve" text-anchor="start" x="680" y="-871.8" font-family="Helvetica,sans-Serif" font-size="11.00">study_id</text>
<polygon fill="none" stroke="black" points="778.75,-863.75 778.75,-887.25 831.5,-887.25 831.5,-863.75 778.75,-863.75"/>
<text xml:space="preserve" text-anchor="start" x="783.75" y="-872" font-family="Helvetica,sans-Serif" font-size="10.00" fill="#777777">str</text>
<polygon fill="none" stroke="black" points="675,-840.25 675,-863.75 778.75,-863.75 778.75,-840.25 675,-840.25"/>
<text xml:space="preserve" text-anchor="start" x="680" y="-848.3" font-family="Helvetica,sans-Serif" font-size="11.00">registry_id</text>
<polygon fill="none" stroke="black" points="778.75,-840.25 778.75,-863.75 831.5,-863.75 831.5,-840.25 778.75,-840.25"/>
<text xml:space="preserve" text-anchor="start" x="783.75" y="-848.5" font-family="Helvetica,sans-Serif" font-size="10.00" fill="#777777">str | None</text>
<polygon fill="none" stroke="black" points="675,-816.75 675,-840.25 778.75,-840.25 778.75,-816.75 675,-816.75"/>
<text xml:space="preserve" text-anchor="start" x="680" y="-824.8" font-family="Helvetica,sans-Serif" font-size="11.00">design</text>
<polygon fill="none" stroke="black" points="778.75,-816.75 778.75,-840.25 831.5,-840.25 831.5,-816.75 778.75,-816.75"/>
<text xml:space="preserve" text-anchor="start" x="783.75" y="-825" font-family="Helvetica,sans-Serif" font-size="10.00" fill="#777777">str | None</text>
<polygon fill="none" stroke="black" points="675,-793.25 675,-816.75 778.75,-816.75 778.75,-793.25 675,-793.25"/>
<text xml:space="preserve" text-anchor="start" x="680" y="-801.3" font-family="Helvetica,sans-Serif" font-size="11.00">domain</text>
<polygon fill="none" stroke="black" points="778.75,-793.25 778.75,-816.75 831.5,-816.75 831.5,-793.25 778.75,-793.25"/>
<text xml:space="preserve" text-anchor="start" x="783.75" y="-801.5" font-family="Helvetica,sans-Serif" font-size="10.00" fill="#777777">str | None</text>
<polygon fill="none" stroke="black" points="675,-769.75 675,-793.25 778.75,-793.25 778.75,-769.75 675,-769.75"/>
<text xml:space="preserve" text-anchor="start" x="680" y="-777.8" font-family="Helvetica,sans-Serif" font-size="11.00">inferred</text>
<polygon fill="none" stroke="black" points="778.75,-769.75 778.75,-793.25 831.5,-793.25 831.5,-769.75 778.75,-769.75"/>
<text xml:space="preserve" text-anchor="start" x="783.75" y="-778" font-family="Helvetica,sans-Serif" font-size="10.00" fill="#777777">bool</text>
<polygon fill="none" stroke="black" points="675,-746.25 675,-769.75 778.75,-769.75 778.75,-746.25 675,-746.25"/>
<text xml:space="preserve" text-anchor="start" x="680" y="-754.3" font-family="Helvetica,sans-Serif" font-size="11.00">dedupe_confidence</text>
<polygon fill="none" stroke="black" points="778.75,-746.25 778.75,-769.75 831.5,-769.75 831.5,-746.25 778.75,-746.25"/>
<text xml:space="preserve" text-anchor="start" x="783.75" y="-754.5" font-family="Helvetica,sans-Serif" font-size="10.00" fill="#777777">float</text>
</g>
<!-- Paper&#45;&gt;Study -->
<g id="edge4" class="edge">
<title>Paper&#45;&gt;Study</title>
<path fill="none" stroke="#666666" d="M660.18,-1060.62C679.02,-1013.98 698.8,-965.02 715.26,-924.28"/>
<polygon fill="#666666" stroke="#666666" points="717.67,-925.32 718.05,-917.38 712.8,-923.36 717.67,-925.32"/>
<text xml:space="preserve" text-anchor="middle" x="686.58" y="-1014.05" font-family="Helvetica,sans-Serif" font-size="11.00">1..1</text>
</g>
<!-- PopulationCandidate -->
<g id="node4" class="node">
<title>PopulationCandidate</title>
<polygon fill="#1f4e79" stroke="none" points="246.88,-946 246.88,-971 561.62,-971 561.62,-946 246.88,-946"/>
<polygon fill="none" stroke="black" points="246.88,-946 246.88,-971 561.62,-971 561.62,-946 246.88,-946"/>
<text xml:space="preserve" text-anchor="start" x="336.75" y="-954.65" font-family="Helvetica,sans-Serif" font-weight="bold" font-size="13.00" fill="white">PopulationCandidate</text>
<polygon fill="none" stroke="black" points="246.88,-922.5 246.88,-946 345.38,-946 345.38,-922.5 246.88,-922.5"/>
<text xml:space="preserve" text-anchor="start" x="251.88" y="-930.55" font-family="Helvetica,sans-Serif" font-size="11.00">candidate_id</text>
<polygon fill="none" stroke="black" points="345.38,-922.5 345.38,-946 561.62,-946 561.62,-922.5 345.38,-922.5"/>
<text xml:space="preserve" text-anchor="start" x="350.38" y="-930.75" font-family="Helvetica,sans-Serif" font-size="10.00" fill="#777777">str</text>
<polygon fill="none" stroke="black" points="246.88,-899 246.88,-922.5 345.38,-922.5 345.38,-899 246.88,-899"/>
<text xml:space="preserve" text-anchor="start" x="251.88" y="-907.05" font-family="Helvetica,sans-Serif" font-size="11.00">paper_id</text>
<polygon fill="none" stroke="black" points="345.38,-899 345.38,-922.5 561.62,-922.5 561.62,-899 345.38,-899"/>
<text xml:space="preserve" text-anchor="start" x="350.38" y="-907.25" font-family="Helvetica,sans-Serif" font-size="10.00" fill="#777777">str</text>
<polygon fill="none" stroke="black" points="246.88,-875.5 246.88,-899 345.38,-899 345.38,-875.5 246.88,-875.5"/>
<text xml:space="preserve" text-anchor="start" x="251.88" y="-883.55" font-family="Helvetica,sans-Serif" font-size="11.00">value</text>
<polygon fill="none" stroke="black" points="345.38,-875.5 345.38,-899 561.62,-899 561.62,-875.5 345.38,-875.5"/>
<text xml:space="preserve" text-anchor="start" x="350.38" y="-883.75" font-family="Helvetica,sans-Serif" font-size="10.00" fill="#777777">int</text>
<polygon fill="none" stroke="black" points="246.88,-852 246.88,-875.5 345.38,-875.5 345.38,-852 246.88,-852"/>
<text xml:space="preserve" text-anchor="start" x="251.88" y="-860.05" font-family="Helvetica,sans-Serif" font-size="11.00">raw_text</text>
<polygon fill="none" stroke="black" points="345.38,-852 345.38,-875.5 561.62,-875.5 561.62,-852 345.38,-852"/>
<text xml:space="preserve" text-anchor="start" x="350.38" y="-860.25" font-family="Helvetica,sans-Serif" font-size="10.00" fill="#777777">str</text>
<polygon fill="none" stroke="black" points="246.88,-828.5 246.88,-852 345.38,-852 345.38,-828.5 246.88,-828.5"/>
<text xml:space="preserve" text-anchor="start" x="251.88" y="-836.55" font-family="Helvetica,sans-Serif" font-size="11.00">sentence</text>
<polygon fill="none" stroke="black" points="345.38,-828.5 345.38,-852 561.62,-852 561.62,-828.5 345.38,-828.5"/>
<text xml:space="preserve" text-anchor="start" x="350.38" y="-836.75" font-family="Helvetica,sans-Serif" font-size="10.00" fill="#777777">str</text>
<polygon fill="none" stroke="black" points="246.88,-805 246.88,-828.5 345.38,-828.5 345.38,-805 246.88,-805"/>
<text xml:space="preserve" text-anchor="start" x="251.88" y="-813.05" font-family="Helvetica,sans-Serif" font-size="11.00">section</text>
<polygon fill="none" stroke="black" points="345.38,-805 345.38,-828.5 561.62,-828.5 561.62,-805 345.38,-805"/>
<text xml:space="preserve" text-anchor="start" x="350.38" y="-813.25" font-family="Helvetica,sans-Serif" font-size="10.00" fill="#777777">str | None</text>
<polygon fill="none" stroke="black" points="246.88,-781.5 246.88,-805 345.38,-805 345.38,-781.5 246.88,-781.5"/>
<text xml:space="preserve" text-anchor="start" x="251.88" y="-789.55" font-family="Helvetica,sans-Serif" font-size="11.00">semantic_type</text>
<polygon fill="none" stroke="black" points="345.38,-781.5 345.38,-805 561.62,-805 561.62,-781.5 345.38,-781.5"/>
<text xml:space="preserve" text-anchor="start" x="350.38" y="-789.75" font-family="Helvetica,sans-Serif" font-size="10.00" fill="#777777">Literal[&#39;TOTAL_RANDOMIZED&#39;, &#39;TOTAL_AN…</text>
<polygon fill="none" stroke="black" points="246.88,-758 246.88,-781.5 345.38,-781.5 345.38,-758 246.88,-758"/>
<text xml:space="preserve" text-anchor="start" x="251.88" y="-766.05" font-family="Helvetica,sans-Serif" font-size="11.00">start_char</text>
<polygon fill="none" stroke="black" points="345.38,-758 345.38,-781.5 561.62,-781.5 561.62,-758 345.38,-758"/>
<text xml:space="preserve" text-anchor="start" x="350.38" y="-766.25" font-family="Helvetica,sans-Serif" font-size="10.00" fill="#777777">int | None</text>
<polygon fill="none" stroke="black" points="246.88,-734.5 246.88,-758 345.38,-758 345.38,-734.5 246.88,-734.5"/>
<text xml:space="preserve" text-anchor="start" x="251.88" y="-742.55" font-family="Helvetica,sans-Serif" font-size="11.00">end_char</text>
<polygon fill="none" stroke="black" points="345.38,-734.5 345.38,-758 561.62,-758 561.62,-734.5 345.38,-734.5"/>
<text xml:space="preserve" text-anchor="start" x="350.38" y="-742.75" font-family="Helvetica,sans-Serif" font-size="10.00" fill="#777777">int | None</text>
<polygon fill="none" stroke="black" points="246.88,-711 246.88,-734.5 345.38,-734.5 345.38,-711 246.88,-711"/>
<text xml:space="preserve" text-anchor="start" x="251.88" y="-719.05" font-family="Helvetica,sans-Serif" font-size="11.00">extraction_method</text>
<polygon fill="none" stroke="black" points="345.38,-711 345.38,-734.5 561.62,-734.5 561.62,-711 345.38,-711"/>
<text xml:space="preserve" text-anchor="start" x="350.38" y="-719.25" font-family="Helvetica,sans-Serif" font-size="10.00" fill="#777777">str</text>
<polygon fill="none" stroke="black" points="246.88,-687.5 246.88,-711 345.38,-711 345.38,-687.5 246.88,-687.5"/>
<text xml:space="preserve" text-anchor="start" x="251.88" y="-695.55" font-family="Helvetica,sans-Serif" font-size="11.00">confidence</text>
<polygon fill="none" stroke="black" points="345.38,-687.5 345.38,-711 561.62,-711 561.62,-687.5 345.38,-687.5"/>
<text xml:space="preserve" text-anchor="start" x="350.38" y="-695.75" font-family="Helvetica,sans-Serif" font-size="10.00" fill="#777777">float</text>
</g>
<!-- Paper&#45;&gt;PopulationCandidate -->
<g id="edge2" class="edge">
<title>Paper&#45;&gt;PopulationCandidate</title>
<path fill="none" stroke="#666666" d="M512.93,-1060.62C500.75,-1034.8 488.24,-1008.28 476.23,-982.82"/>
<polygon fill="#666666" stroke="#666666" points="478.74,-981.99 473.17,-976.33 473.99,-984.23 478.74,-981.99"/>
<text xml:space="preserve" text-anchor="middle" x="537.24" y="-1014.05" font-family="Helvetica,sans-Serif" font-size="11.00">abstract yields 0..n</text>
</g>
<!-- CitationEdge -->
<g id="node6" class="node">
<title>CitationEdge</title>
<polygon fill="#1f4e79" stroke="none" points="534.75,-262.5 534.75,-287.5 701.75,-287.5 701.75,-262.5 534.75,-262.5"/>
<polygon fill="none" stroke="black" points="534.75,-262.5 534.75,-287.5 701.75,-287.5 701.75,-262.5 534.75,-262.5"/>
<text xml:space="preserve" text-anchor="start" x="576.62" y="-271.15" font-family="Helvetica,sans-Serif" font-weight="bold" font-size="13.00" fill="white">CitationEdge</text>
<polygon fill="none" stroke="black" points="534.75,-239 534.75,-262.5 625,-262.5 625,-239 534.75,-239"/>
<text xml:space="preserve" text-anchor="start" x="539.75" y="-247.05" font-family="Helvetica,sans-Serif" font-size="11.00">edge_id</text>
<polygon fill="none" stroke="black" points="625,-239 625,-262.5 701.75,-262.5 701.75,-239 625,-239"/>
<text xml:space="preserve" text-anchor="start" x="630" y="-247.25" font-family="Helvetica,sans-Serif" font-size="10.00" fill="#777777">str</text>
<polygon fill="none" stroke="black" points="534.75,-215.5 534.75,-239 625,-239 625,-215.5 534.75,-215.5"/>
<text xml:space="preserve" text-anchor="start" x="539.75" y="-223.55" font-family="Helvetica,sans-Serif" font-size="11.00">source_paper_id</text>
<polygon fill="none" stroke="black" points="625,-215.5 625,-239 701.75,-239 701.75,-215.5 625,-215.5"/>
<text xml:space="preserve" text-anchor="start" x="630" y="-223.75" font-family="Helvetica,sans-Serif" font-size="10.00" fill="#777777">str</text>
<polygon fill="none" stroke="black" points="534.75,-192 534.75,-215.5 625,-215.5 625,-192 534.75,-192"/>
<text xml:space="preserve" text-anchor="start" x="539.75" y="-200.05" font-family="Helvetica,sans-Serif" font-size="11.00">target_paper_id</text>
<polygon fill="none" stroke="black" points="625,-192 625,-215.5 701.75,-215.5 701.75,-192 625,-192"/>
<text xml:space="preserve" text-anchor="start" x="630" y="-200.25" font-family="Helvetica,sans-Serif" font-size="10.00" fill="#777777">str</text>
<polygon fill="none" stroke="black" points="534.75,-168.5 534.75,-192 625,-192 625,-168.5 534.75,-168.5"/>
<text xml:space="preserve" text-anchor="start" x="539.75" y="-176.55" font-family="Helvetica,sans-Serif" font-size="11.00">relation</text>
<polygon fill="none" stroke="black" points="625,-168.5 625,-192 701.75,-192 701.75,-168.5 625,-168.5"/>
<text xml:space="preserve" text-anchor="start" x="630" y="-176.75" font-family="Helvetica,sans-Serif" font-size="10.00" fill="#777777">Literal[&#39;CITES&#39;]</text>
<polygon fill="none" stroke="black" points="534.75,-145 534.75,-168.5 625,-168.5 625,-145 534.75,-145"/>
<text xml:space="preserve" text-anchor="start" x="539.75" y="-153.05" font-family="Helvetica,sans-Serif" font-size="11.00">providers</text>
<polygon fill="none" stroke="black" points="625,-145 625,-168.5 701.75,-168.5 701.75,-145 625,-145"/>
<text xml:space="preserve" text-anchor="start" x="630" y="-153.25" font-family="Helvetica,sans-Serif" font-size="10.00" fill="#777777">list[str]</text>
<polygon fill="none" stroke="black" points="534.75,-121.5 534.75,-145 625,-145 625,-121.5 534.75,-121.5"/>
<text xml:space="preserve" text-anchor="start" x="539.75" y="-129.55" font-family="Helvetica,sans-Serif" font-size="11.00">confidence</text>
<polygon fill="none" stroke="black" points="625,-121.5 625,-145 701.75,-145 701.75,-121.5 625,-121.5"/>
<text xml:space="preserve" text-anchor="start" x="630" y="-129.75" font-family="Helvetica,sans-Serif" font-size="10.00" fill="#777777">float</text>
<polygon fill="none" stroke="black" points="534.75,-98 534.75,-121.5 625,-121.5 625,-98 534.75,-98"/>
<text xml:space="preserve" text-anchor="start" x="539.75" y="-106.05" font-family="Helvetica,sans-Serif" font-size="11.00">retrieved_at</text>
<polygon fill="none" stroke="black" points="625,-98 625,-121.5 701.75,-121.5 701.75,-98 625,-98"/>
<text xml:space="preserve" text-anchor="start" x="630" y="-106.25" font-family="Helvetica,sans-Serif" font-size="10.00" fill="#777777">datetime</text>
<polygon fill="none" stroke="black" points="534.75,-74.5 534.75,-98 625,-98 625,-74.5 534.75,-74.5"/>
<text xml:space="preserve" text-anchor="start" x="539.75" y="-82.55" font-family="Helvetica,sans-Serif" font-size="11.00">base_weight</text>
<polygon fill="none" stroke="black" points="625,-74.5 625,-98 701.75,-98 701.75,-74.5 625,-74.5"/>
<text xml:space="preserve" text-anchor="start" x="630" y="-82.75" font-family="Helvetica,sans-Serif" font-size="10.00" fill="#777777">float | None</text>
<polygon fill="none" stroke="black" points="534.75,-51 534.75,-74.5 625,-74.5 625,-51 534.75,-51"/>
<text xml:space="preserve" text-anchor="start" x="539.75" y="-59.05" font-family="Helvetica,sans-Serif" font-size="11.00">final_weight</text>
<polygon fill="none" stroke="black" points="625,-51 625,-74.5 701.75,-74.5 701.75,-51 625,-51"/>
<text xml:space="preserve" text-anchor="start" x="630" y="-59.25" font-family="Helvetica,sans-Serif" font-size="10.00" fill="#777777">float | None</text>
<polygon fill="none" stroke="black" points="534.75,-27.5 534.75,-51 625,-51 625,-27.5 534.75,-27.5"/>
<text xml:space="preserve" text-anchor="start" x="539.75" y="-35.55" font-family="Helvetica,sans-Serif" font-size="11.00">n_score</text>
<polygon fill="none" stroke="black" points="625,-27.5 625,-51 701.75,-51 701.75,-27.5 625,-27.5"/>
<text xml:space="preserve" text-anchor="start" x="630" y="-35.75" font-family="Helvetica,sans-Serif" font-size="10.00" fill="#777777">float | None</text>
<polygon fill="none" stroke="black" points="534.75,-4 534.75,-27.5 625,-27.5 625,-4 534.75,-4"/>
<text xml:space="preserve" text-anchor="start" x="539.75" y="-12.05" font-family="Helvetica,sans-Serif" font-size="11.00">journal_score</text>
<polygon fill="none" stroke="black" points="625,-4 625,-27.5 701.75,-27.5 701.75,-4 625,-4"/>
<text xml:space="preserve" text-anchor="start" x="630" y="-12.25" font-family="Helvetica,sans-Serif" font-size="10.00" fill="#777777">float | None</text>
</g>
<!-- Paper&#45;&gt;CitationEdge -->
<g id="edge5" class="edge">
<title>Paper&#45;&gt;CitationEdge</title>
<path fill="none" stroke="#666666" d="M596.29,-1060.58C601.29,-852.44 609.74,-500.95 614.57,-299.97"/>
<polygon fill="#666666" stroke="#666666" points="617.19,-300.18 614.74,-292.62 611.94,-300.05 617.19,-300.18"/>
<text xml:space="preserve" text-anchor="middle" x="639.45" y="-637.05" font-family="Helvetica,sans-Serif" font-size="11.00">source, target</text>
</g>
<!-- PopulationResolution -->
<g id="node5" class="node">
<title>PopulationResolution</title>
<polygon fill="#1f4e79" stroke="none" points="260,-569 260,-594 548.5,-594 548.5,-569 260,-569"/>
<polygon fill="none" stroke="black" points="260,-569 260,-594 548.5,-594 548.5,-569 260,-569"/>
<text xml:space="preserve" text-anchor="start" x="334.5" y="-577.65" font-family="Helvetica,sans-Serif" font-weight="bold" font-size="13.00" fill="white">PopulationResolution</text>
<polygon fill="none" stroke="black" points="260,-545.5 260,-569 376.5,-569 376.5,-545.5 260,-545.5"/>
<text xml:space="preserve" text-anchor="start" x="265" y="-553.55" font-family="Helvetica,sans-Serif" font-size="11.00">paper_id</text>
<polygon fill="none" stroke="black" points="376.5,-545.5 376.5,-569 548.5,-569 548.5,-545.5 376.5,-545.5"/>
<text xml:space="preserve" text-anchor="start" x="381.5" y="-553.75" font-family="Helvetica,sans-Serif" font-size="10.00" fill="#777777">str</text>
<polygon fill="none" stroke="black" points="260,-522 260,-545.5 376.5,-545.5 376.5,-522 260,-522"/>
<text xml:space="preserve" text-anchor="start" x="265" y="-530.05" font-family="Helvetica,sans-Serif" font-size="11.00">study_id</text>
<polygon fill="none" stroke="black" points="376.5,-522 376.5,-545.5 548.5,-545.5 548.5,-522 376.5,-522"/>
<text xml:space="preserve" text-anchor="start" x="381.5" y="-530.25" font-family="Helvetica,sans-Serif" font-size="10.00" fill="#777777">str | None</text>
<polygon fill="none" stroke="black" points="260,-498.5 260,-522 376.5,-522 376.5,-498.5 260,-498.5"/>
<text xml:space="preserve" text-anchor="start" x="265" y="-506.55" font-family="Helvetica,sans-Serif" font-size="11.00">n_eff</text>
<polygon fill="none" stroke="black" points="376.5,-498.5 376.5,-522 548.5,-522 548.5,-498.5 376.5,-498.5"/>
<text xml:space="preserve" text-anchor="start" x="381.5" y="-506.75" font-family="Helvetica,sans-Serif" font-size="10.00" fill="#777777">int | None</text>
<polygon fill="none" stroke="black" points="260,-475 260,-498.5 376.5,-498.5 376.5,-475 260,-475"/>
<text xml:space="preserve" text-anchor="start" x="265" y="-483.05" font-family="Helvetica,sans-Serif" font-size="11.00">semantic_type</text>
<polygon fill="none" stroke="black" points="376.5,-475 376.5,-498.5 548.5,-498.5 548.5,-475 376.5,-475"/>
<text xml:space="preserve" text-anchor="start" x="381.5" y="-483.25" font-family="Helvetica,sans-Serif" font-size="10.00" fill="#777777">str | None</text>
<polygon fill="none" stroke="black" points="260,-451.5 260,-475 376.5,-475 376.5,-451.5 260,-451.5"/>
<text xml:space="preserve" text-anchor="start" x="265" y="-459.55" font-family="Helvetica,sans-Serif" font-size="11.00">confidence</text>
<polygon fill="none" stroke="black" points="376.5,-451.5 376.5,-475 548.5,-475 548.5,-451.5 376.5,-451.5"/>
<text xml:space="preserve" text-anchor="start" x="381.5" y="-459.75" font-family="Helvetica,sans-Serif" font-size="10.00" fill="#777777">float</text>
<polygon fill="none" stroke="black" points="260,-428 260,-451.5 376.5,-451.5 376.5,-428 260,-428"/>
<text xml:space="preserve" text-anchor="start" x="265" y="-436.05" font-family="Helvetica,sans-Serif" font-size="11.00">status</text>
<polygon fill="none" stroke="black" points="376.5,-428 376.5,-451.5 548.5,-451.5 548.5,-428 376.5,-428"/>
<text xml:space="preserve" text-anchor="start" x="381.5" y="-436.25" font-family="Helvetica,sans-Serif" font-size="10.00" fill="#777777">Literal[&#39;resolved&#39;, &#39;ambiguous&#39;, &#39;mis…</text>
<polygon fill="none" stroke="black" points="260,-404.5 260,-428 376.5,-428 376.5,-404.5 260,-404.5"/>
<text xml:space="preserve" text-anchor="start" x="265" y="-412.55" font-family="Helvetica,sans-Serif" font-size="11.00">selected_candidate_id</text>
<polygon fill="none" stroke="black" points="376.5,-404.5 376.5,-428 548.5,-428 548.5,-404.5 376.5,-404.5"/>
<text xml:space="preserve" text-anchor="start" x="381.5" y="-412.75" font-family="Helvetica,sans-Serif" font-size="10.00" fill="#777777">str | None</text>
<polygon fill="none" stroke="black" points="260,-381 260,-404.5 376.5,-404.5 376.5,-381 260,-381"/>
<text xml:space="preserve" text-anchor="start" x="265" y="-389.05" font-family="Helvetica,sans-Serif" font-size="11.00">explanation</text>
<polygon fill="none" stroke="black" points="376.5,-381 376.5,-404.5 548.5,-404.5 548.5,-381 376.5,-381"/>
<text xml:space="preserve" text-anchor="start" x="381.5" y="-389.25" font-family="Helvetica,sans-Serif" font-size="10.00" fill="#777777">str</text>
</g>
<!-- PopulationCandidate&#45;&gt;PopulationResolution -->
<g id="edge3" class="edge">
<title>PopulationCandidate&#45;&gt;PopulationResolution</title>
<path fill="none" stroke="#666666" d="M404.25,-683.67C404.25,-657.98 404.25,-631.51 404.25,-606.66"/>
<polygon fill="#666666" stroke="#666666" points="406.88,-606.96 404.25,-599.46 401.63,-606.96 406.88,-606.96"/>
<text xml:space="preserve" text-anchor="middle" x="432" y="-637.05" font-family="Helvetica,sans-Serif" font-size="11.00">n..1 chosen</text>
</g>
<!-- PopulationResolution&#45;&gt;CitationEdge -->
<g id="edge6" class="edge">
<title>PopulationResolution&#45;&gt;CitationEdge</title>
<path fill="none" stroke="#666666" d="M473.14,-377.13C488.89,-352.13 505.9,-325.12 522.55,-298.69"/>
<polygon fill="#666666" stroke="#666666" points="524.65,-300.28 526.42,-292.53 520.21,-297.48 524.65,-300.28"/>
<text xml:space="preserve" text-anchor="middle" x="535.19" y="-330.55" font-family="Helvetica,sans-Serif" font-size="11.00">supplies weight</text>
</g>
<!-- RunResult -->
<g id="node7" class="node">
<title>RunResult</title>
<polygon fill="#1f4e79" stroke="none" points="565.5,-1747 565.5,-1772 833,-1772 833,-1747 565.5,-1747"/>
<polygon fill="none" stroke="black" points="565.5,-1747 565.5,-1772 833,-1772 833,-1747 565.5,-1747"/>
<text xml:space="preserve" text-anchor="start" x="665.5" y="-1755.65" font-family="Helvetica,sans-Serif" font-weight="bold" font-size="13.00" fill="white">RunResult</text>
<polygon fill="none" stroke="black" points="565.5,-1723.5 565.5,-1747 712,-1747 712,-1723.5 565.5,-1723.5"/>
<text xml:space="preserve" text-anchor="start" x="570.5" y="-1731.55" font-family="Helvetica,sans-Serif" font-size="11.00">run_id</text>
<polygon fill="none" stroke="black" points="712,-1723.5 712,-1747 833,-1747 833,-1723.5 712,-1723.5"/>
<text xml:space="preserve" text-anchor="start" x="717" y="-1731.75" font-family="Helvetica,sans-Serif" font-size="10.00" fill="#777777">str</text>
<polygon fill="none" stroke="black" points="565.5,-1700 565.5,-1723.5 712,-1723.5 712,-1700 565.5,-1700"/>
<text xml:space="preserve" text-anchor="start" x="570.5" y="-1708.05" font-family="Helvetica,sans-Serif" font-size="11.00">seed_paper_id</text>
<polygon fill="none" stroke="black" points="712,-1700 712,-1723.5 833,-1723.5 833,-1700 712,-1700"/>
<text xml:space="preserve" text-anchor="start" x="717" y="-1708.25" font-family="Helvetica,sans-Serif" font-size="10.00" fill="#777777">str</text>
<polygon fill="none" stroke="black" points="565.5,-1676.5 565.5,-1700 712,-1700 712,-1676.5 565.5,-1676.5"/>
<text xml:space="preserve" text-anchor="start" x="570.5" y="-1684.55" font-family="Helvetica,sans-Serif" font-size="11.00">papers</text>
<polygon fill="none" stroke="black" points="712,-1676.5 712,-1700 833,-1700 833,-1676.5 712,-1676.5"/>
<text xml:space="preserve" text-anchor="start" x="717" y="-1684.75" font-family="Helvetica,sans-Serif" font-size="10.00" fill="#777777">list[Paper]</text>
<polygon fill="none" stroke="black" points="565.5,-1653 565.5,-1676.5 712,-1676.5 712,-1653 565.5,-1653"/>
<text xml:space="preserve" text-anchor="start" x="570.5" y="-1661.05" font-family="Helvetica,sans-Serif" font-size="11.00">studies</text>
<polygon fill="none" stroke="black" points="712,-1653 712,-1676.5 833,-1676.5 833,-1653 712,-1653"/>
<text xml:space="preserve" text-anchor="start" x="717" y="-1661.25" font-family="Helvetica,sans-Serif" font-size="10.00" fill="#777777">list[Study]</text>
<polygon fill="none" stroke="black" points="565.5,-1629.5 565.5,-1653 712,-1653 712,-1629.5 565.5,-1629.5"/>
<text xml:space="preserve" text-anchor="start" x="570.5" y="-1637.55" font-family="Helvetica,sans-Serif" font-size="11.00">population_candidates</text>
<polygon fill="none" stroke="black" points="712,-1629.5 712,-1653 833,-1653 833,-1629.5 712,-1629.5"/>
<text xml:space="preserve" text-anchor="start" x="717" y="-1637.75" font-family="Helvetica,sans-Serif" font-size="10.00" fill="#777777">list[PopulationCandidate]</text>
<polygon fill="none" stroke="black" points="565.5,-1606 565.5,-1629.5 712,-1629.5 712,-1606 565.5,-1606"/>
<text xml:space="preserve" text-anchor="start" x="570.5" y="-1614.05" font-family="Helvetica,sans-Serif" font-size="11.00">population_resolutions</text>
<polygon fill="none" stroke="black" points="712,-1606 712,-1629.5 833,-1629.5 833,-1606 712,-1606"/>
<text xml:space="preserve" text-anchor="start" x="717" y="-1614.25" font-family="Helvetica,sans-Serif" font-size="10.00" fill="#777777">list[PopulationResolution]</text>
<polygon fill="none" stroke="black" points="565.5,-1582.5 565.5,-1606 712,-1606 712,-1582.5 565.5,-1582.5"/>
<text xml:space="preserve" text-anchor="start" x="570.5" y="-1590.55" font-family="Helvetica,sans-Serif" font-size="11.00">citation_edges</text>
<polygon fill="none" stroke="black" points="712,-1582.5 712,-1606 833,-1606 833,-1582.5 712,-1582.5"/>
<text xml:space="preserve" text-anchor="start" x="717" y="-1590.75" font-family="Helvetica,sans-Serif" font-size="10.00" fill="#777777">list[CitationEdge]</text>
<polygon fill="none" stroke="black" points="565.5,-1559 565.5,-1582.5 712,-1582.5 712,-1559 565.5,-1559"/>
<text xml:space="preserve" text-anchor="start" x="570.5" y="-1567.05" font-family="Helvetica,sans-Serif" font-size="11.00">ranked_foundational_papers</text>
<polygon fill="none" stroke="black" points="712,-1559 712,-1582.5 833,-1582.5 833,-1559 712,-1559"/>
<text xml:space="preserve" text-anchor="start" x="717" y="-1567.25" font-family="Helvetica,sans-Serif" font-size="10.00" fill="#777777">list[dict[str, Any]]</text>
<polygon fill="none" stroke="black" points="565.5,-1535.5 565.5,-1559 712,-1559 712,-1535.5 565.5,-1535.5"/>
<text xml:space="preserve" text-anchor="start" x="570.5" y="-1543.55" font-family="Helvetica,sans-Serif" font-size="11.00">ranked_paths</text>
<polygon fill="none" stroke="black" points="712,-1535.5 712,-1559 833,-1559 833,-1535.5 712,-1535.5"/>
<text xml:space="preserve" text-anchor="start" x="717" y="-1543.75" font-family="Helvetica,sans-Serif" font-size="10.00" fill="#777777">list[dict[str, Any]]</text>
<polygon fill="none" stroke="black" points="565.5,-1512 565.5,-1535.5 712,-1535.5 712,-1512 565.5,-1512"/>
<text xml:space="preserve" text-anchor="start" x="570.5" y="-1520.05" font-family="Helvetica,sans-Serif" font-size="11.00">warnings</text>
<polygon fill="none" stroke="black" points="712,-1512 712,-1535.5 833,-1535.5 833,-1512 712,-1512"/>
<text xml:space="preserve" text-anchor="start" x="717" y="-1520.25" font-family="Helvetica,sans-Serif" font-size="10.00" fill="#777777">list[str]</text>
<polygon fill="none" stroke="black" points="565.5,-1488.5 565.5,-1512 712,-1512 712,-1488.5 565.5,-1488.5"/>
<text xml:space="preserve" text-anchor="start" x="570.5" y="-1496.55" font-family="Helvetica,sans-Serif" font-size="11.00">created_at</text>
<polygon fill="none" stroke="black" points="712,-1488.5 712,-1512 833,-1512 833,-1488.5 712,-1488.5"/>
<text xml:space="preserve" text-anchor="start" x="717" y="-1496.75" font-family="Helvetica,sans-Serif" font-size="10.00" fill="#777777">datetime</text>
</g>
<!-- RunResult&#45;&gt;Paper -->
<g id="edge7" class="edge">
<title>RunResult&#45;&gt;Paper</title>
<path fill="none" stroke="#666666" d="M660.39,-1484.54C653.65,-1459.42 646.57,-1433.06 639.63,-1407.21"/>
<polygon fill="#666666" stroke="#666666" points="642.26,-1406.87 637.78,-1400.3 637.19,-1408.23 642.26,-1406.87"/>
<text xml:space="preserve" text-anchor="middle" x="666.58" y="-1438.05" font-family="Helvetica,sans-Serif" font-size="11.00">collects</text>
</g>
<!-- RunResult&#45;&gt;Study -->
<g id="edge10" class="edge">
<title>RunResult&#45;&gt;Study</title>
<path fill="none" stroke="#666666" d="M709.03,-1484.56C720,-1322.18 737.49,-1063.42 746.85,-924.97"/>
<polygon fill="#666666" stroke="#666666" points="749.46,-925.2 747.35,-917.54 744.23,-924.84 749.46,-925.2"/>
<text xml:space="preserve" text-anchor="middle" x="755.25" y="-1226.05" font-family="Helvetica,sans-Serif" font-size="11.00">collects</text>
</g>
<!-- RunResult&#45;&gt;PopulationResolution -->
<g id="edge9" class="edge">
<title>RunResult&#45;&gt;PopulationResolution</title>
<path fill="none" stroke="#666666" d="M557.51,-1496.69C439.15,-1374.66 280.81,-1181.7 223.25,-975 188.49,-850.19 175.91,-804.1 223.25,-683.5 234.36,-655.2 251.72,-628.57 271.38,-604.61"/>
<polygon fill="#666666" stroke="#666666" points="273.21,-606.52 276.01,-599.08 269.18,-603.15 273.21,-606.52"/>
<text xml:space="preserve" text-anchor="middle" x="255.98" y="-1014.05" font-family="Helvetica,sans-Serif" font-size="11.00">collects</text>
</g>
<!-- RunResult&#45;&gt;CitationEdge -->
<g id="edge8" class="edge">
<title>RunResult&#45;&gt;CitationEdge</title>
<path fill="none" stroke="#666666" d="M814.37,-1484.81C860.64,-1412.74 903.25,-1321.69 903.25,-1230.75 903.25,-1230.75 903.25,-1230.75 903.25,-486.5 903.25,-367.25 798.91,-267.92 716.5,-208.07"/>
<polygon fill="#666666" stroke="#666666" points="718.45,-206.24 710.83,-204 715.39,-210.51 718.45,-206.24"/>
<text xml:space="preserve" text-anchor="middle" x="920.88" y="-825.55" font-family="Helvetica,sans-Serif" font-size="11.00">collects</text>
</g>
</g>
</svg>
